<?xml version="1.0" encoding="UTF-8" standalone="no"?>
<!DOCTYPE svg PUBLIC "-//W3C//DTD SVG 1.1//EN"
 "http://www.w3.org/Graphics/SVG/1.1/DTD/svg11.dtd">
<!-- Generated by graphviz version 2.40.1 (20161225.0304)
 -->
<!-- Title: G Pages: 1 -->
<svg width="2510pt" height="502pt"
 viewBox="0.00 0.00 2509.59 502.30" xmlns="http://www.w3.org/2000/svg" xmlns:xlink="http://www.w3.org/1999/xlink">
<g id="graph0" class="graph" transform="scale(1 1) rotate(0) translate(21.6 480.6986)">
<title>G</title>
<polygon fill="#111111" stroke="transparent" points="-21.6,21.6 -21.6,-480.6986 2487.9936,-480.6986 2487.9936,21.6 -21.6,21.6"/>
<!-- Timer.tsx -->
<g id="node1" class="node">
<title>Timer.tsx</title>
<path fill="none" stroke="#cfffac" d="M1076.8652,-291.1482C1076.8652,-291.1482 1020.4766,-291.1482 1020.4766,-291.1482 1016.4436,-291.1482 1012.4107,-287.1152 1012.4107,-283.0823 1012.4107,-283.0823 1012.4107,-275.0164 1012.4107,-275.0164 1012.4107,-270.9834 1016.4436,-266.9505 1020.4766,-266.9505 1020.4766,-266.9505 1076.8652,-266.9505 1076.8652,-266.9505 1080.8982,-266.9505 1084.9311,-270.9834 1084.9311,-275.0164 1084.9311,-275.0164 1084.9311,-283.0823 1084.9311,-283.0823 1084.9311,-287.1152 1080.8982,-291.1482 1076.8652,-291.1482"/>
<text text-anchor="middle" x="1048.6709" y="-275.8986" font-family="Arial" font-size="14.00" fill="#cfffac">Timer.tsx</text>
</g>
<!-- components/App.tsx -->
<g id="node2" class="node">
<title>components/App.tsx</title>
<path fill="none" stroke="#c6c5fe" d="M241.9537,-376.1482C241.9537,-376.1482 115.39,-376.1482 115.39,-376.1482 111.3571,-376.1482 107.3241,-372.1152 107.3241,-368.0823 107.3241,-368.0823 107.3241,-360.0164 107.3241,-360.0164 107.3241,-355.9834 111.3571,-351.9505 115.39,-351.9505 115.39,-351.9505 241.9537,-351.9505 241.9537,-351.9505 245.9867,-351.9505 250.0196,-355.9834 250.0196,-360.0164 250.0196,-360.0164 250.0196,-368.0823 250.0196,-368.0823 250.0196,-372.1152 245.9867,-376.1482 241.9537,-376.1482"/>
<text text-anchor="middle" x="178.6719" y="-360.8986" font-family="Arial" font-size="14.00" fill="#c6c5fe">components/App.tsx</text>
</g>
<!-- components/Router.tsx -->
<g id="node3" class="node">
<title>components/Router.tsx</title>
<path fill="none" stroke="#c6c5fe" d="M437.3082,-376.1482C437.3082,-376.1482 294.0687,-376.1482 294.0687,-376.1482 290.0358,-376.1482 286.0028,-372.1152 286.0028,-368.0823 286.0028,-368.0823 286.0028,-360.0164 286.0028,-360.0164 286.0028,-355.9834 290.0358,-351.9505 294.0687,-351.9505 294.0687,-351.9505 437.3082,-351.9505 437.3082,-351.9505 441.3412,-351.9505 445.3741,-355.9834 445.3741,-360.0164 445.3741,-360.0164 445.3741,-368.0823 445.3741,-368.0823 445.3741,-372.1152 441.3412,-376.1482 437.3082,-376.1482"/>
<text text-anchor="middle" x="365.6885" y="-360.8986" font-family="Arial" font-size="14.00" fill="#c6c5fe">components/Router.tsx</text>
</g>
<!-- components/App.tsx&#45;&gt;components/Router.tsx -->
<g id="edge1" class="edge">
<title>components/App.tsx&#45;&gt;components/Router.tsx</title>
<path fill="none" stroke="#757575" d="M250.1753,-364.0493C258.5503,-364.0493 267.175,-364.0493 275.7593,-364.0493"/>
<polygon fill="#757575" stroke="#757575" points="275.8008,-367.5494 285.8007,-364.0493 275.8007,-360.5494 275.8008,-367.5494"/>
</g>
<!-- components/EditorPage.tsx -->
<g id="node10" class="node">
<title>components/EditorPage.tsx</title>
<path fill="none" stroke="#c6c5fe" d="M681.4118,-376.1482C681.4118,-376.1482 510.1312,-376.1482 510.1312,-376.1482 506.0983,-376.1482 502.0653,-372.1152 502.0653,-368.0823 502.0653,-368.0823 502.0653,-360.0164 502.0653,-360.0164 502.0653,-355.9834 506.0983,-351.9505 510.1312,-351.9505 510.1312,-351.9505 681.4118,-351.9505 681.4118,-351.9505 685.4447,-351.9505 689.4777,-355.9834 689.4777,-360.0164 689.4777,-360.0164 689.4777,-368.0823 689.4777,-368.0823 689.4777,-372.1152 685.4447,-376.1482 681.4118,-376.1482"/>
<text text-anchor="middle" x="595.7715" y="-360.8986" font-family="Arial" font-size="14.00" fill="#c6c5fe">components/EditorPage.tsx</text>
</g>
<!-- components/Router.tsx&#45;&gt;components/EditorPage.tsx -->
<g id="edge17" class="edge">
<title>components/Router.tsx&#45;&gt;components/EditorPage.tsx</title>
<path fill="none" stroke="#757575" d="M445.5146,-364.0493C460.4204,-364.0493 476.1991,-364.0493 491.7092,-364.0493"/>
<polygon fill="#757575" stroke="#757575" points="491.8509,-367.5494 501.8509,-364.0493 491.8508,-360.5494 491.8509,-367.5494"/>
</g>
<!-- examples/index.ts -->
<g id="node12" class="node">
<title>examples/index.ts</title>
<path fill="none" stroke="#c6c5fe" d="M885.7329,-417.1482C885.7329,-417.1482 773.7553,-417.1482 773.7553,-417.1482 769.7224,-417.1482 765.6894,-413.1152 765.6894,-409.0823 765.6894,-409.0823 765.6894,-401.0164 765.6894,-401.0164 765.6894,-396.9834 769.7224,-392.9505 773.7553,-392.9505 773.7553,-392.9505 885.7329,-392.9505 885.7329,-392.9505 889.7659,-392.9505 893.7988,-396.9834 893.7988,-401.0164 893.7988,-401.0164 893.7988,-409.0823 893.7988,-409.0823 893.7988,-413.1152 889.7659,-417.1482 885.7329,-417.1482"/>
<text text-anchor="middle" x="829.7441" y="-401.8986" font-family="Arial" font-size="14.00" fill="#c6c5fe">examples/index.ts</text>
</g>
<!-- components/Router.tsx&#45;&gt;examples/index.ts -->
<g id="edge19" class="edge">
<title>components/Router.tsx&#45;&gt;examples/index.ts</title>
<path fill="none" stroke="#757575" d="M424.2835,-376.1303C442.4785,-379.4942 462.648,-382.8305 481.2813,-385.0493 575.4802,-396.2665 684.7816,-401.2438 755.4873,-403.4181"/>
<polygon fill="#757575" stroke="#757575" points="755.5335,-406.9209 765.6329,-403.7189 755.7411,-399.9239 755.5335,-406.9209"/>
</g>
<!-- components/VisualizationPage.tsx -->
<g id="node18" class="node">
<title>components/VisualizationPage.tsx</title>
<path fill="none" stroke="#c6c5fe" d="M702.1861,-313.1482C702.1861,-313.1482 489.3569,-313.1482 489.3569,-313.1482 485.324,-313.1482 481.291,-309.1152 481.291,-305.0823 481.291,-305.0823 481.291,-297.0164 481.291,-297.0164 481.291,-292.9834 485.324,-288.9505 489.3569,-288.9505 489.3569,-288.9505 702.1861,-288.9505 702.1861,-288.9505 706.219,-288.9505 710.252,-292.9834 710.252,-297.0164 710.252,-297.0164 710.252,-305.0823 710.252,-305.0823 710.252,-309.1152 706.219,-313.1482 702.1861,-313.1482"/>
<text text-anchor="middle" x="595.7715" y="-297.8986" font-family="Arial" font-size="14.00" fill="#c6c5fe">components/VisualizationPage.tsx</text>
</g>
<!-- components/Router.tsx&#45;&gt;components/VisualizationPage.tsx -->
<g id="edge18" class="edge">
<title>components/Router.tsx&#45;&gt;components/VisualizationPage.tsx</title>
<path fill="none" stroke="#757575" d="M409.7786,-351.9768C447.3094,-341.7003 501.3692,-326.898 541.543,-315.8979"/>
<polygon fill="#757575" stroke="#757575" points="542.7183,-319.2049 551.439,-313.1882 540.8696,-312.4535 542.7183,-319.2049"/>
</g>
<!-- components/DistributionChart/Chart.tsx -->
<g id="node4" class="node">
<title>components/DistributionChart/Chart.tsx</title>
<path fill="none" stroke="#c6c5fe" d="M1761.2746,-188.1482C1761.2746,-188.1482 1516.7595,-188.1482 1516.7595,-188.1482 1512.7266,-188.1482 1508.6936,-184.1152 1508.6936,-180.0823 1508.6936,-180.0823 1508.6936,-172.0164 1508.6936,-172.0164 1508.6936,-167.9834 1512.7266,-163.9505 1516.7595,-163.9505 1516.7595,-163.9505 1761.2746,-163.9505 1761.2746,-163.9505 1765.3076,-163.9505 1769.3405,-167.9834 1769.3405,-172.0164 1769.3405,-172.0164 1769.3405,-180.0823 1769.3405,-180.0823 1769.3405,-184.1152 1765.3076,-188.1482 1761.2746,-188.1482"/>
<text text-anchor="middle" x="1639.0171" y="-172.8986" font-family="Arial" font-size="14.00" fill="#c6c5fe">components/DistributionChart/Chart.tsx</text>
</g>
<!-- components/DistributionChart/types.tsx -->
<g id="node5" class="node">
<title>components/DistributionChart/types.tsx</title>
<path fill="none" stroke="#cfffac" d="M2085.622,-128.1482C2085.622,-128.1482 1842.6514,-128.1482 1842.6514,-128.1482 1838.6185,-128.1482 1834.5855,-124.1152 1834.5855,-120.0823 1834.5855,-120.0823 1834.5855,-112.0164 1834.5855,-112.0164 1834.5855,-107.9834 1838.6185,-103.9505 1842.6514,-103.9505 1842.6514,-103.9505 2085.622,-103.9505 2085.622,-103.9505 2089.6549,-103.9505 2093.6879,-107.9834 2093.6879,-112.0164 2093.6879,-112.0164 2093.6879,-120.0823 2093.6879,-120.0823 2093.6879,-124.1152 2089.6549,-128.1482 2085.622,-128.1482"/>
<text text-anchor="middle" x="1964.1367" y="-112.8986" font-family="Arial" font-size="14.00" fill="#cfffac">components/DistributionChart/types.tsx</text>
</g>
<!-- components/DistributionChart/Chart.tsx&#45;&gt;components/DistributionChart/types.tsx -->
<g id="edge2" class="edge">
<title>components/DistributionChart/Chart.tsx&#45;&gt;components/DistributionChart/types.tsx</title>
<path fill="none" stroke="#757575" d="M1716.9312,-163.9839C1742.8735,-159.7941 1771.8973,-154.9201 1798.3613,-150.0493 1831.3301,-143.9813 1867.8423,-136.5681 1898.1897,-130.2143"/>
<polygon fill="#757575" stroke="#757575" points="1899.165,-133.5858 1908.2311,-128.1036 1897.725,-126.7355 1899.165,-133.5858"/>
</g>
<!-- components/DistributionChart/ConfigControls.tsx -->
<g id="node6" class="node">
<title>components/DistributionChart/ConfigControls.tsx</title>
<path fill="none" stroke="#c6c5fe" d="M1790.1398,-108.1482C1790.1398,-108.1482 1487.8944,-108.1482 1487.8944,-108.1482 1483.8614,-108.1482 1479.8285,-104.1152 1479.8285,-100.0823 1479.8285,-100.0823 1479.8285,-92.0164 1479.8285,-92.0164 1479.8285,-87.9834 1483.8614,-83.9505 1487.8944,-83.9505 1487.8944,-83.9505 1790.1398,-83.9505 1790.1398,-83.9505 1794.1728,-83.9505 1798.2057,-87.9834 1798.2057,-92.0164 1798.2057,-92.0164 1798.2057,-100.0823 1798.2057,-100.0823 1798.2057,-104.1152 1794.1728,-108.1482 1790.1398,-108.1482"/>
<text text-anchor="middle" x="1639.0171" y="-92.8986" font-family="Arial" font-size="14.00" fill="#c6c5fe">components/DistributionChart/ConfigControls.tsx</text>
</g>
<!-- components/DistributionChart/ConfigControls.tsx&#45;&gt;components/DistributionChart/types.tsx -->
<g id="edge3" class="edge">
<title>components/DistributionChart/ConfigControls.tsx&#45;&gt;components/DistributionChart/types.tsx</title>
<path fill="none" stroke="#757575" d="M1798.2434,-105.8443C1806.9164,-106.3778 1815.602,-106.9121 1824.2015,-107.4411"/>
<polygon fill="#757575" stroke="#757575" points="1824.055,-110.9386 1834.2511,-108.0593 1824.4848,-103.9518 1824.055,-110.9386"/>
</g>
<!-- components/DistributionChart/Statistics.tsx -->
<g id="node7" class="node">
<title>components/DistributionChart/Statistics.tsx</title>
<path fill="none" stroke="#cfffac" d="M1772.0538,-66.1482C1772.0538,-66.1482 1505.9804,-66.1482 1505.9804,-66.1482 1501.9475,-66.1482 1497.9145,-62.1152 1497.9145,-58.0823 1497.9145,-58.0823 1497.9145,-50.0164 1497.9145,-50.0164 1497.9145,-45.9834 1501.9475,-41.9505 1505.9804,-41.9505 1505.9804,-41.9505 1772.0538,-41.9505 1772.0538,-41.9505 1776.0867,-41.9505 1780.1196,-45.9834 1780.1196,-50.0164 1780.1196,-50.0164 1780.1196,-58.0823 1780.1196,-58.0823 1780.1196,-62.1152 1776.0867,-66.1482 1772.0538,-66.1482"/>
<text text-anchor="middle" x="1639.0171" y="-50.8986" font-family="Arial" font-size="14.00" fill="#cfffac">components/DistributionChart/Statistics.tsx</text>
</g>
<!-- components/DistributionChart/distToData.ts -->
<g id="node8" class="node">
<title>components/DistributionChart/distToData.ts</title>
<path fill="none" stroke="#c6c5fe" d="M1773.6847,-24.1482C1773.6847,-24.1482 1504.3495,-24.1482 1504.3495,-24.1482 1500.3165,-24.1482 1496.2836,-20.1152 1496.2836,-16.0823 1496.2836,-16.0823 1496.2836,-8.0164 1496.2836,-8.0164 1496.2836,-3.9834 1500.3165,.0495 1504.3495,.0495 1504.3495,.0495 1773.6847,.0495 1773.6847,.0495 1777.7176,.0495 1781.7506,-3.9834 1781.7506,-8.0164 1781.7506,-8.0164 1781.7506,-16.0823 1781.7506,-16.0823 1781.7506,-20.1152 1777.7176,-24.1482 1773.6847,-24.1482"/>
<text text-anchor="middle" x="1639.0171" y="-8.8986" font-family="Arial" font-size="14.00" fill="#c6c5fe">components/DistributionChart/distToData.ts</text>
</g>
<!-- components/DistributionChart/distToData.ts&#45;&gt;components/DistributionChart/types.tsx -->
<g id="edge4" class="edge">
<title>components/DistributionChart/distToData.ts&#45;&gt;components/DistributionChart/types.tsx</title>
<path fill="none" stroke="#757575" d="M1762.5615,-24.1638C1774.7774,-26.602 1786.8904,-29.5309 1798.3613,-33.0493 1849.6136,-48.7695 1904.3481,-79.1684 1936.3382,-98.491"/>
<polygon fill="#757575" stroke="#757575" points="1934.7648,-101.6314 1945.1216,-103.8646 1938.4179,-95.6602 1934.7648,-101.6314"/>
</g>
<!-- components/DistributionChart/index.tsx -->
<g id="node9" class="node">
<title>components/DistributionChart/index.tsx</title>
<path fill="none" stroke="#c6c5fe" d="M1435.3861,-108.1482C1435.3861,-108.1482 1192.4019,-108.1482 1192.4019,-108.1482 1188.369,-108.1482 1184.336,-104.1152 1184.336,-100.0823 1184.336,-100.0823 1184.336,-92.0164 1184.336,-92.0164 1184.336,-87.9834 1188.369,-83.9505 1192.4019,-83.9505 1192.4019,-83.9505 1435.3861,-83.9505 1435.3861,-83.9505 1439.4191,-83.9505 1443.452,-87.9834 1443.452,-92.0164 1443.452,-92.0164 1443.452,-100.0823 1443.452,-100.0823 1443.452,-104.1152 1439.4191,-108.1482 1435.3861,-108.1482"/>
<text text-anchor="middle" x="1313.894" y="-92.8986" font-family="Arial" font-size="14.00" fill="#c6c5fe">components/DistributionChart/index.tsx</text>
</g>
<!-- components/DistributionChart/index.tsx&#45;&gt;components/DistributionChart/Chart.tsx -->
<g id="edge5" class="edge">
<title>components/DistributionChart/index.tsx&#45;&gt;components/DistributionChart/Chart.tsx</title>
<path fill="none" stroke="#757575" d="M1420.9857,-108.1914C1428.8347,-110.6428 1436.4838,-113.5661 1443.6729,-117.0493 1463.2059,-126.5134 1460.146,-140.5723 1479.6729,-150.0493 1488.6563,-154.4093 1498.2253,-158.0593 1508.0429,-161.1125"/>
<polygon fill="#757575" stroke="#757575" points="1507.3522,-164.5561 1517.9308,-163.971 1509.2962,-157.8314 1507.3522,-164.5561"/>
</g>
<!-- components/DistributionChart/index.tsx&#45;&gt;components/DistributionChart/types.tsx -->
<g id="edge9" class="edge">
<title>components/DistributionChart/index.tsx&#45;&gt;components/DistributionChart/types.tsx</title>
<path fill="none" stroke="#757575" d="M1392.9655,-108.1276C1420.3541,-111.7623 1451.2984,-115.2593 1479.6729,-117.0493 1595.6066,-124.363 1727.4563,-123.4942 1824.3048,-121.143"/>
<polygon fill="#757575" stroke="#757575" points="1824.5443,-124.6382 1834.4533,-120.8881 1824.3685,-117.6404 1824.5443,-124.6382"/>
</g>
<!-- components/DistributionChart/index.tsx&#45;&gt;components/DistributionChart/ConfigControls.tsx -->
<g id="edge6" class="edge">
<title>components/DistributionChart/index.tsx&#45;&gt;components/DistributionChart/ConfigControls.tsx</title>
<path fill="none" stroke="#757575" d="M1443.7929,-96.0493C1452.3105,-96.0493 1460.9529,-96.0493 1469.6212,-96.0493"/>
<polygon fill="#757575" stroke="#757575" points="1469.8031,-99.5494 1479.8031,-96.0493 1469.8031,-92.5494 1469.8031,-99.5494"/>
</g>
<!-- components/DistributionChart/index.tsx&#45;&gt;components/DistributionChart/Statistics.tsx -->
<g id="edge7" class="edge">
<title>components/DistributionChart/index.tsx&#45;&gt;components/DistributionChart/Statistics.tsx</title>
<path fill="none" stroke="#757575" d="M1407.4969,-83.9575C1447.5301,-78.786 1494.4125,-72.7296 1535.4796,-67.4245"/>
<polygon fill="#757575" stroke="#757575" points="1536.043,-70.8809 1545.5121,-66.1285 1535.1461,-63.9386 1536.043,-70.8809"/>
</g>
<!-- components/DistributionChart/index.tsx&#45;&gt;components/DistributionChart/distToData.ts -->
<g id="edge8" class="edge">
<title>components/DistributionChart/index.tsx&#45;&gt;components/DistributionChart/distToData.ts</title>
<path fill="none" stroke="#757575" d="M1339.9843,-83.9581C1372.1369,-69.5715 1428.7717,-45.8895 1479.6729,-33.0493 1490.4496,-30.3308 1501.7305,-27.9498 1513.0976,-25.8672"/>
<polygon fill="#757575" stroke="#757575" points="1513.8537,-29.2881 1523.0986,-24.1129 1512.6442,-22.3934 1513.8537,-29.2881"/>
</g>
<!-- components/Layout.tsx -->
<g id="node11" class="node">
<title>components/Layout.tsx</title>
<path fill="none" stroke="#cfffac" d="M901.6499,-375.1482C901.6499,-375.1482 757.8383,-375.1482 757.8383,-375.1482 753.8054,-375.1482 749.7725,-371.1152 749.7725,-367.0823 749.7725,-367.0823 749.7725,-359.0164 749.7725,-359.0164 749.7725,-354.9834 753.8054,-350.9505 757.8383,-350.9505 757.8383,-350.9505 901.6499,-350.9505 901.6499,-350.9505 905.6829,-350.9505 909.7158,-354.9834 909.7158,-359.0164 909.7158,-359.0164 909.7158,-367.0823 909.7158,-367.0823 909.7158,-371.1152 905.6829,-375.1482 901.6499,-375.1482"/>
<text text-anchor="middle" x="829.7441" y="-359.8986" font-family="Arial" font-size="14.00" fill="#cfffac">components/Layout.tsx</text>
</g>
<!-- components/EditorPage.tsx&#45;&gt;components/Layout.tsx -->
<g id="edge10" class="edge">
<title>components/EditorPage.tsx&#45;&gt;components/Layout.tsx</title>
<path fill="none" stroke="#757575" d="M689.589,-363.6483C706.0132,-363.5781 723.0721,-363.5052 739.3998,-363.4354"/>
<polygon fill="#757575" stroke="#757575" points="739.4744,-366.9353 749.4593,-363.3925 739.4444,-359.9353 739.4744,-366.9353"/>
</g>
<!-- components/EditorPage.tsx&#45;&gt;examples/index.ts -->
<g id="edge11" class="edge">
<title>components/EditorPage.tsx&#45;&gt;examples/index.ts</title>
<path fill="none" stroke="#757575" d="M664.7055,-376.1289C693.283,-381.1367 726.4909,-386.9558 755.5948,-392.0558"/>
<polygon fill="#757575" stroke="#757575" points="755.2497,-395.5486 765.7038,-393.8273 756.458,-388.6537 755.2497,-395.5486"/>
</g>
<!-- examples/barabasi_albert.lua -->
<g id="node21" class="node">
<title>examples/barabasi_albert.lua</title>
<path fill="none" stroke="#cfffac" d="M1139.9937,-417.1482C1139.9937,-417.1482 957.3481,-417.1482 957.3481,-417.1482 953.3151,-417.1482 949.2822,-413.1152 949.2822,-409.0823 949.2822,-409.0823 949.2822,-401.0164 949.2822,-401.0164 949.2822,-396.9834 953.3151,-392.9505 957.3481,-392.9505 957.3481,-392.9505 1139.9937,-392.9505 1139.9937,-392.9505 1144.0267,-392.9505 1148.0596,-396.9834 1148.0596,-401.0164 1148.0596,-401.0164 1148.0596,-409.0823 1148.0596,-409.0823 1148.0596,-413.1152 1144.0267,-417.1482 1139.9937,-417.1482"/>
<text text-anchor="middle" x="1048.6709" y="-401.8986" font-family="Arial" font-size="14.00" fill="#cfffac">examples/barabasi_albert.lua</text>
</g>
<!-- examples/index.ts&#45;&gt;examples/barabasi_albert.lua -->
<g id="edge25" class="edge">
<title>examples/index.ts&#45;&gt;examples/barabasi_albert.lua</title>
<path fill="none" stroke="#757575" d="M893.9501,-405.0493C908.1295,-405.0493 923.5385,-405.0493 938.9542,-405.0493"/>
<polygon fill="#757575" stroke="#757575" points="939.0726,-408.5494 949.0726,-405.0493 939.0726,-401.5494 939.0726,-408.5494"/>
</g>
<!-- examples/gnp.lua -->
<g id="node22" class="node">
<title>examples/gnp.lua</title>
<path fill="none" stroke="#cfffac" d="M1103.3426,-375.1482C1103.3426,-375.1482 993.9992,-375.1482 993.9992,-375.1482 989.9663,-375.1482 985.9333,-371.1152 985.9333,-367.0823 985.9333,-367.0823 985.9333,-359.0164 985.9333,-359.0164 985.9333,-354.9834 989.9663,-350.9505 993.9992,-350.9505 993.9992,-350.9505 1103.3426,-350.9505 1103.3426,-350.9505 1107.3755,-350.9505 1111.4085,-354.9834 1111.4085,-359.0164 1111.4085,-359.0164 1111.4085,-367.0823 1111.4085,-367.0823 1111.4085,-371.1152 1107.3755,-375.1482 1103.3426,-375.1482"/>
<text text-anchor="middle" x="1048.6709" y="-359.8986" font-family="Arial" font-size="14.00" fill="#cfffac">examples/gnp.lua</text>
</g>
<!-- examples/index.ts&#45;&gt;examples/gnp.lua -->
<g id="edge26" class="edge">
<title>examples/index.ts&#45;&gt;examples/gnp.lua</title>
<path fill="none" stroke="#757575" d="M892.7731,-392.9575C918.6473,-387.9937 948.7703,-382.2147 975.6015,-377.0673"/>
<polygon fill="#757575" stroke="#757575" points="976.5464,-380.45 985.7078,-375.1285 975.2275,-373.5753 976.5464,-380.45"/>
</g>
<!-- examples/random_walk.lua -->
<g id="node23" class="node">
<title>examples/random_walk.lua</title>
<path fill="none" stroke="#cfffac" d="M1133.246,-459.1482C1133.246,-459.1482 964.0958,-459.1482 964.0958,-459.1482 960.0629,-459.1482 956.0299,-455.1152 956.0299,-451.0823 956.0299,-451.0823 956.0299,-443.0164 956.0299,-443.0164 956.0299,-438.9834 960.0629,-434.9505 964.0958,-434.9505 964.0958,-434.9505 1133.246,-434.9505 1133.246,-434.9505 1137.2789,-434.9505 1141.3119,-438.9834 1141.3119,-443.0164 1141.3119,-443.0164 1141.3119,-451.0823 1141.3119,-451.0823 1141.3119,-455.1152 1137.2789,-459.1482 1133.246,-459.1482"/>
<text text-anchor="middle" x="1048.6709" y="-443.8986" font-family="Arial" font-size="14.00" fill="#cfffac">examples/random_walk.lua</text>
</g>
<!-- examples/index.ts&#45;&gt;examples/random_walk.lua -->
<g id="edge27" class="edge">
<title>examples/index.ts&#45;&gt;examples/random_walk.lua</title>
<path fill="none" stroke="#757575" d="M892.7731,-417.1411C918.6473,-422.1049 948.7703,-427.8839 975.6015,-433.0313"/>
<polygon fill="#757575" stroke="#757575" points="975.2275,-436.5233 985.7078,-434.9702 976.5464,-429.6487 975.2275,-436.5233"/>
</g>
<!-- components/GraphView.tsx -->
<g id="node13" class="node">
<title>components/GraphView.tsx</title>
<path fill="none" stroke="#c6c5fe" d="M1398.9952,-272.1482C1398.9952,-272.1482 1228.7929,-272.1482 1228.7929,-272.1482 1224.7599,-272.1482 1220.727,-268.1152 1220.727,-264.0823 1220.727,-264.0823 1220.727,-256.0164 1220.727,-256.0164 1220.727,-251.9834 1224.7599,-247.9505 1228.7929,-247.9505 1228.7929,-247.9505 1398.9952,-247.9505 1398.9952,-247.9505 1403.0282,-247.9505 1407.0611,-251.9834 1407.0611,-256.0164 1407.0611,-256.0164 1407.0611,-264.0823 1407.0611,-264.0823 1407.0611,-268.1152 1403.0282,-272.1482 1398.9952,-272.1482"/>
<text text-anchor="middle" x="1313.894" y="-256.8986" font-family="Arial" font-size="14.00" fill="#c6c5fe">components/GraphView.tsx</text>
</g>
<!-- graph/index.ts -->
<g id="node14" class="node">
<title>graph/index.ts</title>
<path fill="none" stroke="#c6c5fe" d="M1682.8956,-252.1482C1682.8956,-252.1482 1595.1386,-252.1482 1595.1386,-252.1482 1591.1057,-252.1482 1587.0727,-248.1152 1587.0727,-244.0823 1587.0727,-244.0823 1587.0727,-236.0164 1587.0727,-236.0164 1587.0727,-231.9834 1591.1057,-227.9505 1595.1386,-227.9505 1595.1386,-227.9505 1682.8956,-227.9505 1682.8956,-227.9505 1686.9285,-227.9505 1690.9614,-231.9834 1690.9614,-236.0164 1690.9614,-236.0164 1690.9614,-244.0823 1690.9614,-244.0823 1690.9614,-248.1152 1686.9285,-252.1482 1682.8956,-252.1482"/>
<text text-anchor="middle" x="1639.0171" y="-236.8986" font-family="Arial" font-size="14.00" fill="#c6c5fe">graph/index.ts</text>
</g>
<!-- components/GraphView.tsx&#45;&gt;graph/index.ts -->
<g id="edge12" class="edge">
<title>components/GraphView.tsx&#45;&gt;graph/index.ts</title>
<path fill="none" stroke="#757575" d="M1407.0613,-254.3181C1461.429,-250.9737 1528.5453,-246.845 1576.5706,-243.8907"/>
<polygon fill="#757575" stroke="#757575" points="1577.0551,-247.3676 1586.8213,-243.2601 1576.6253,-240.3808 1577.0551,-247.3676"/>
</g>
<!-- graph/AdjacencyListGraph.ts -->
<g id="node24" class="node">
<title>graph/AdjacencyListGraph.ts</title>
<path fill="none" stroke="#c6c5fe" d="M2053.8356,-212.1482C2053.8356,-212.1482 1874.4378,-212.1482 1874.4378,-212.1482 1870.4049,-212.1482 1866.3719,-208.1152 1866.3719,-204.0823 1866.3719,-204.0823 1866.3719,-196.0164 1866.3719,-196.0164 1866.3719,-191.9834 1870.4049,-187.9505 1874.4378,-187.9505 1874.4378,-187.9505 2053.8356,-187.9505 2053.8356,-187.9505 2057.8686,-187.9505 2061.9015,-191.9834 2061.9015,-196.0164 2061.9015,-196.0164 2061.9015,-204.0823 2061.9015,-204.0823 2061.9015,-208.1152 2057.8686,-212.1482 2053.8356,-212.1482"/>
<text text-anchor="middle" x="1964.1367" y="-196.8986" font-family="Arial" font-size="14.00" fill="#c6c5fe">graph/AdjacencyListGraph.ts</text>
</g>
<!-- graph/index.ts&#45;&gt;graph/AdjacencyListGraph.ts -->
<g id="edge31" class="edge">
<title>graph/index.ts&#45;&gt;graph/AdjacencyListGraph.ts</title>
<path fill="none" stroke="#757575" d="M1691.2532,-233.6226C1735.5265,-228.1756 1800.4715,-220.1853 1855.8972,-213.3662"/>
<polygon fill="#757575" stroke="#757575" points="1856.6308,-216.8024 1866.1285,-212.1074 1855.776,-209.8548 1856.6308,-216.8024"/>
</g>
<!-- graph/AdjacencyListVertex.ts -->
<g id="node25" class="node">
<title>graph/AdjacencyListVertex.ts</title>
<path fill="none" stroke="#c6c5fe" d="M2318.1627,-251.1482C2318.1627,-251.1482 2138.2055,-251.1482 2138.2055,-251.1482 2134.1726,-251.1482 2130.1396,-247.1152 2130.1396,-243.0823 2130.1396,-243.0823 2130.1396,-235.0164 2130.1396,-235.0164 2130.1396,-230.9834 2134.1726,-226.9505 2138.2055,-226.9505 2138.2055,-226.9505 2318.1627,-226.9505 2318.1627,-226.9505 2322.1956,-226.9505 2326.2286,-230.9834 2326.2286,-235.0164 2326.2286,-235.0164 2326.2286,-243.0823 2326.2286,-243.0823 2326.2286,-247.1152 2322.1956,-251.1482 2318.1627,-251.1482"/>
<text text-anchor="middle" x="2228.1841" y="-235.8986" font-family="Arial" font-size="14.00" fill="#c6c5fe">graph/AdjacencyListVertex.ts</text>
</g>
<!-- graph/index.ts&#45;&gt;graph/AdjacencyListVertex.ts -->
<g id="edge32" class="edge">
<title>graph/index.ts&#45;&gt;graph/AdjacencyListVertex.ts</title>
<path fill="none" stroke="#757575" d="M1691.0433,-239.961C1786.7349,-239.7986 1992.4943,-239.4494 2119.7466,-239.2334"/>
<polygon fill="#757575" stroke="#757575" points="2119.9146,-242.7332 2129.9086,-239.2161 2119.9027,-235.7332 2119.9146,-242.7332"/>
</g>
<!-- graph/types.ts -->
<g id="node26" class="node">
<title>graph/types.ts</title>
<path fill="none" stroke="#cfffac" d="M2458.2964,-251.1482C2458.2964,-251.1482 2370.5532,-251.1482 2370.5532,-251.1482 2366.5202,-251.1482 2362.4873,-247.1152 2362.4873,-243.0823 2362.4873,-243.0823 2362.4873,-235.0164 2362.4873,-235.0164 2362.4873,-230.9834 2366.5202,-226.9505 2370.5532,-226.9505 2370.5532,-226.9505 2458.2964,-226.9505 2458.2964,-226.9505 2462.3294,-226.9505 2466.3623,-230.9834 2466.3623,-235.0164 2466.3623,-235.0164 2466.3623,-243.0823 2466.3623,-243.0823 2466.3623,-247.1152 2462.3294,-251.1482 2458.2964,-251.1482"/>
<text text-anchor="middle" x="2414.4248" y="-235.8986" font-family="Arial" font-size="14.00" fill="#cfffac">graph/types.ts</text>
</g>
<!-- graph/index.ts&#45;&gt;graph/types.ts -->
<g id="edge33" class="edge">
<title>graph/index.ts&#45;&gt;graph/types.ts</title>
<path fill="none" stroke="#757575" d="M1691.2177,-244.1321C1730.5438,-247.0599 1785.8065,-250.8597 1834.3613,-253.0493 2052.8701,-262.9032 2109.2248,-285.6189 2326.4561,-260.0493 2338.3951,-258.644 2351.0611,-256.201 2362.9515,-253.4666"/>
<polygon fill="#757575" stroke="#757575" points="2363.8189,-256.8578 2372.7239,-251.1175 2362.1829,-250.0517 2363.8189,-256.8578"/>
</g>
<!-- components/MetricsView.tsx -->
<g id="node15" class="node">
<title>components/MetricsView.tsx</title>
<path fill="none" stroke="#c6c5fe" d="M1136.9725,-192.1482C1136.9725,-192.1482 960.3693,-192.1482 960.3693,-192.1482 956.3363,-192.1482 952.3034,-188.1152 952.3034,-184.0823 952.3034,-184.0823 952.3034,-176.0164 952.3034,-176.0164 952.3034,-171.9834 956.3363,-167.9505 960.3693,-167.9505 960.3693,-167.9505 1136.9725,-167.9505 1136.9725,-167.9505 1141.0055,-167.9505 1145.0384,-171.9834 1145.0384,-176.0164 1145.0384,-176.0164 1145.0384,-184.0823 1145.0384,-184.0823 1145.0384,-188.1152 1141.0055,-192.1482 1136.9725,-192.1482"/>
<text text-anchor="middle" x="1048.6709" y="-176.8986" font-family="Arial" font-size="14.00" fill="#c6c5fe">components/MetricsView.tsx</text>
</g>
<!-- components/MetricsView.tsx&#45;&gt;components/DistributionChart/index.tsx -->
<g id="edge13" class="edge">
<title>components/MetricsView.tsx&#45;&gt;components/DistributionChart/index.tsx</title>
<path fill="none" stroke="#757575" d="M1069.9883,-167.8779C1096.0704,-153.5252 1141.9694,-129.9895 1184.1152,-117.0493 1192.3587,-114.5183 1200.9956,-112.277 1209.7303,-110.2949"/>
<polygon fill="#757575" stroke="#757575" points="1210.5789,-113.6925 1219.6179,-108.1657 1209.1052,-106.8494 1210.5789,-113.6925"/>
</g>
<!-- components/MetricsView.tsx&#45;&gt;graph/index.ts -->
<g id="edge14" class="edge">
<title>components/MetricsView.tsx&#45;&gt;graph/index.ts</title>
<path fill="none" stroke="#757575" d="M1120.5945,-192.1357C1141.0789,-195.3237 1163.443,-198.5635 1184.1152,-201.0493 1324.163,-217.8896 1489.3203,-230.1626 1577.0056,-236.0807"/>
<polygon fill="#757575" stroke="#757575" points="1576.8387,-239.5772 1587.0503,-236.7536 1577.3067,-232.5929 1576.8387,-239.5772"/>
</g>
<!-- metrics/DegreeDistribution.ts -->
<g id="node16" class="node">
<title>metrics/DegreeDistribution.ts</title>
<path fill="none" stroke="#c6c5fe" d="M1403.552,-192.1482C1403.552,-192.1482 1224.2361,-192.1482 1224.2361,-192.1482 1220.2032,-192.1482 1216.1702,-188.1152 1216.1702,-184.0823 1216.1702,-184.0823 1216.1702,-176.0164 1216.1702,-176.0164 1216.1702,-171.9834 1220.2032,-167.9505 1224.2361,-167.9505 1224.2361,-167.9505 1403.552,-167.9505 1403.552,-167.9505 1407.5849,-167.9505 1411.6179,-171.9834 1411.6179,-176.0164 1411.6179,-176.0164 1411.6179,-184.0823 1411.6179,-184.0823 1411.6179,-188.1152 1407.5849,-192.1482 1403.552,-192.1482"/>
<text text-anchor="middle" x="1313.894" y="-176.8986" font-family="Arial" font-size="14.00" fill="#c6c5fe">metrics/DegreeDistribution.ts</text>
</g>
<!-- components/MetricsView.tsx&#45;&gt;metrics/DegreeDistribution.ts -->
<g id="edge15" class="edge">
<title>components/MetricsView.tsx&#45;&gt;metrics/DegreeDistribution.ts</title>
<path fill="none" stroke="#757575" d="M1145.1728,-180.0493C1164.9389,-180.0493 1185.8637,-180.0493 1206.0002,-180.0493"/>
<polygon fill="#757575" stroke="#757575" points="1206.1295,-183.5494 1216.1294,-180.0493 1206.1294,-176.5494 1206.1295,-183.5494"/>
</g>
<!-- metrics/DistanceToRootDistribution.ts -->
<g id="node17" class="node">
<title>metrics/DistanceToRootDistribution.ts</title>
<path fill="none" stroke="#c6c5fe" d="M1429.9622,-150.1482C1429.9622,-150.1482 1197.8259,-150.1482 1197.8259,-150.1482 1193.7929,-150.1482 1189.76,-146.1152 1189.76,-142.0823 1189.76,-142.0823 1189.76,-134.0164 1189.76,-134.0164 1189.76,-129.9834 1193.7929,-125.9505 1197.8259,-125.9505 1197.8259,-125.9505 1429.9622,-125.9505 1429.9622,-125.9505 1433.9952,-125.9505 1438.0281,-129.9834 1438.0281,-134.0164 1438.0281,-134.0164 1438.0281,-142.0823 1438.0281,-142.0823 1438.0281,-146.1152 1433.9952,-150.1482 1429.9622,-150.1482"/>
<text text-anchor="middle" x="1313.894" y="-134.8986" font-family="Arial" font-size="14.00" fill="#c6c5fe">metrics/DistanceToRootDistribution.ts</text>
</g>
<!-- components/MetricsView.tsx&#45;&gt;metrics/DistanceToRootDistribution.ts -->
<g id="edge16" class="edge">
<title>components/MetricsView.tsx&#45;&gt;metrics/DistanceToRootDistribution.ts</title>
<path fill="none" stroke="#757575" d="M1125.0286,-167.9575C1157.0648,-162.8844 1194.4777,-156.9598 1227.5146,-151.7281"/>
<polygon fill="#757575" stroke="#757575" points="1228.2867,-155.1496 1237.6162,-150.1285 1227.1918,-148.2357 1228.2867,-155.1496"/>
</g>
<!-- metrics/DegreeDistribution.ts&#45;&gt;graph/index.ts -->
<g id="edge39" class="edge">
<title>metrics/DegreeDistribution.ts&#45;&gt;graph/index.ts</title>
<path fill="none" stroke="#757575" d="M1379.2964,-192.119C1436.9356,-202.7561 1520.3153,-218.1434 1576.9369,-228.5927"/>
<polygon fill="#757575" stroke="#757575" points="1576.3659,-232.0463 1586.8351,-230.4194 1577.6363,-225.1626 1576.3659,-232.0463"/>
</g>
<!-- metrics/DistanceToRootDistribution.ts&#45;&gt;graph/index.ts -->
<g id="edge40" class="edge">
<title>metrics/DistanceToRootDistribution.ts&#45;&gt;graph/index.ts</title>
<path fill="none" stroke="#757575" d="M1422.9345,-150.1908C1430.1313,-152.6561 1437.1154,-155.5817 1443.6729,-159.0493 1464.2389,-169.9246 1459.6948,-185.1282 1479.6729,-197.0493 1509.1854,-214.6598 1546.0214,-225.2075 1576.8402,-231.4449"/>
<polygon fill="#757575" stroke="#757575" points="1576.5619,-234.9551 1587.0418,-233.3989 1577.8788,-228.0801 1576.5619,-234.9551"/>
</g>
<!-- components/VisualizationPage.tsx&#45;&gt;components/Layout.tsx -->
<g id="edge21" class="edge">
<title>components/VisualizationPage.tsx&#45;&gt;components/Layout.tsx</title>
<path fill="none" stroke="#757575" d="M639.1756,-313.1158C669.2059,-321.405 710.1125,-332.5793 746.2617,-342.0493 754.3668,-344.1726 762.9256,-346.373 771.3507,-348.515"/>
<polygon fill="#757575" stroke="#757575" points="770.5913,-351.9331 781.1445,-350.9945 772.3093,-345.1472 770.5913,-351.9331"/>
</g>
<!-- components/VisualizationPage.tsx&#45;&gt;components/GraphView.tsx -->
<g id="edge20" class="edge">
<title>components/VisualizationPage.tsx&#45;&gt;components/GraphView.tsx</title>
<path fill="none" stroke="#757575" d="M628.0846,-288.9792C658.1813,-278.4225 704.5517,-263.8914 746.2617,-258.0493 907.0761,-235.5251 1096.0398,-242.8253 1210.2906,-250.8881"/>
<polygon fill="#757575" stroke="#757575" points="1210.2023,-254.3908 1220.4283,-251.6195 1210.706,-247.4089 1210.2023,-254.3908"/>
</g>
<!-- components/VisualizationPage.tsx&#45;&gt;components/MetricsView.tsx -->
<g id="edge22" class="edge">
<title>components/VisualizationPage.tsx&#45;&gt;components/MetricsView.tsx</title>
<path fill="none" stroke="#757575" d="M614.8737,-288.865C642.6489,-271.7514 696.3299,-240.9166 746.2617,-225.0493 809.6238,-204.9142 883.3763,-193.7098 942.1836,-187.517"/>
<polygon fill="#757575" stroke="#757575" points="942.6417,-190.9886 952.2349,-186.4918 941.9313,-184.0247 942.6417,-190.9886"/>
</g>
<!-- hooks/useSimulation.tsx -->
<g id="node19" class="node">
<title>hooks/useSimulation.tsx</title>
<path fill="none" stroke="#c6c5fe" d="M905.1431,-333.1482C905.1431,-333.1482 754.3452,-333.1482 754.3452,-333.1482 750.3122,-333.1482 746.2793,-329.1152 746.2793,-325.0823 746.2793,-325.0823 746.2793,-317.0164 746.2793,-317.0164 746.2793,-312.9834 750.3122,-308.9505 754.3452,-308.9505 754.3452,-308.9505 905.1431,-308.9505 905.1431,-308.9505 909.176,-308.9505 913.209,-312.9834 913.209,-317.0164 913.209,-317.0164 913.209,-325.0823 913.209,-325.0823 913.209,-329.1152 909.176,-333.1482 905.1431,-333.1482"/>
<text text-anchor="middle" x="829.7441" y="-317.8986" font-family="Arial" font-size="14.00" fill="#c6c5fe">hooks/useSimulation.tsx</text>
</g>
<!-- components/VisualizationPage.tsx&#45;&gt;hooks/useSimulation.tsx -->
<g id="edge23" class="edge">
<title>components/VisualizationPage.tsx&#45;&gt;hooks/useSimulation.tsx</title>
<path fill="none" stroke="#757575" d="M710.3588,-310.8443C718.9197,-311.576 727.4976,-312.3093 735.9093,-313.0283"/>
<polygon fill="#757575" stroke="#757575" points="735.813,-316.5328 746.0748,-313.8973 736.4092,-309.5582 735.813,-316.5328"/>
</g>
<!-- hooks/useTimer.tsx -->
<g id="node20" class="node">
<title>hooks/useTimer.tsx</title>
<path fill="none" stroke="#c6c5fe" d="M889.7584,-291.1482C889.7584,-291.1482 769.7299,-291.1482 769.7299,-291.1482 765.697,-291.1482 761.664,-287.1152 761.664,-283.0823 761.664,-283.0823 761.664,-275.0164 761.664,-275.0164 761.664,-270.9834 765.697,-266.9505 769.7299,-266.9505 769.7299,-266.9505 889.7584,-266.9505 889.7584,-266.9505 893.7913,-266.9505 897.8242,-270.9834 897.8242,-275.0164 897.8242,-275.0164 897.8242,-283.0823 897.8242,-283.0823 897.8242,-287.1152 893.7913,-291.1482 889.7584,-291.1482"/>
<text text-anchor="middle" x="829.7441" y="-275.8986" font-family="Arial" font-size="14.00" fill="#c6c5fe">hooks/useTimer.tsx</text>
</g>
<!-- components/VisualizationPage.tsx&#45;&gt;hooks/useTimer.tsx -->
<g id="edge24" class="edge">
<title>components/VisualizationPage.tsx&#45;&gt;hooks/useTimer.tsx</title>
<path fill="none" stroke="#757575" d="M710.3588,-290.2749C724.291,-288.9649 738.2685,-287.6506 751.5006,-286.4064"/>
<polygon fill="#757575" stroke="#757575" points="751.8325,-289.8907 761.4609,-285.4699 751.1771,-282.9215 751.8325,-289.8907"/>
</g>
<!-- simulation/LuaSimulation.ts -->
<g id="node27" class="node">
<title>simulation/LuaSimulation.ts</title>
<path fill="none" stroke="#c6c5fe" d="M1134.0254,-333.1482C1134.0254,-333.1482 963.3164,-333.1482 963.3164,-333.1482 959.2834,-333.1482 955.2505,-329.1152 955.2505,-325.0823 955.2505,-325.0823 955.2505,-317.0164 955.2505,-317.0164 955.2505,-312.9834 959.2834,-308.9505 963.3164,-308.9505 963.3164,-308.9505 1134.0254,-308.9505 1134.0254,-308.9505 1138.0583,-308.9505 1142.0913,-312.9834 1142.0913,-317.0164 1142.0913,-317.0164 1142.0913,-325.0823 1142.0913,-325.0823 1142.0913,-329.1152 1138.0583,-333.1482 1134.0254,-333.1482"/>
<text text-anchor="middle" x="1048.6709" y="-317.8986" font-family="Arial" font-size="14.00" fill="#c6c5fe">simulation/LuaSimulation.ts</text>
</g>
<!-- hooks/useSimulation.tsx&#45;&gt;simulation/LuaSimulation.ts -->
<g id="edge34" class="edge">
<title>hooks/useSimulation.tsx&#45;&gt;simulation/LuaSimulation.ts</title>
<path fill="none" stroke="#757575" d="M913.4481,-321.0493C923.7849,-321.0493 934.4466,-321.0493 945.0353,-321.0493"/>
<polygon fill="#757575" stroke="#757575" points="945.1522,-324.5494 955.1521,-321.0493 945.1521,-317.5494 945.1522,-324.5494"/>
</g>
<!-- hooks/useTimer.tsx&#45;&gt;Timer.tsx -->
<g id="edge35" class="edge">
<title>hooks/useTimer.tsx&#45;&gt;Timer.tsx</title>
<path fill="none" stroke="#757575" d="M897.8139,-279.0493C931.723,-279.0493 971.8471,-279.0493 1002.1876,-279.0493"/>
<polygon fill="#757575" stroke="#757575" points="1002.4851,-282.5494 1012.4851,-279.0493 1002.485,-275.5494 1002.4851,-282.5494"/>
</g>
<!-- graph/AdjacencyListGraph.ts&#45;&gt;graph/AdjacencyListVertex.ts -->
<g id="edge28" class="edge">
<title>graph/AdjacencyListGraph.ts&#45;&gt;graph/AdjacencyListVertex.ts</title>
<path fill="none" stroke="#757575" d="M2045.8747,-212.1221C2074.4623,-216.3445 2106.7483,-221.1132 2136.1207,-225.4515"/>
<polygon fill="#757575" stroke="#757575" points="2135.9737,-228.9677 2146.3778,-226.9665 2136.9965,-222.0428 2135.9737,-228.9677"/>
</g>
<!-- graph/AdjacencyListGraph.ts&#45;&gt;graph/types.ts -->
<g id="edge29" class="edge">
<title>graph/AdjacencyListGraph.ts&#45;&gt;graph/types.ts</title>
<path fill="none" stroke="#757575" d="M2062.2537,-200.0373C2135.4125,-201.2106 2237.6124,-205.3492 2326.4561,-218.0493 2337.7567,-219.6647 2349.7336,-222.0563 2361.0914,-224.653"/>
<polygon fill="#757575" stroke="#757575" points="2360.3428,-228.0724 2370.8804,-226.9733 2361.9573,-221.2612 2360.3428,-228.0724"/>
</g>
<!-- graph/AdjacencyListVertex.ts&#45;&gt;graph/types.ts -->
<g id="edge30" class="edge">
<title>graph/AdjacencyListVertex.ts&#45;&gt;graph/types.ts</title>
<path fill="none" stroke="#757575" d="M2326.4855,-239.0493C2335.3131,-239.0493 2344.0785,-239.0493 2352.4629,-239.0493"/>
<polygon fill="#757575" stroke="#757575" points="2352.4797,-242.5494 2362.4797,-239.0493 2352.4796,-235.5494 2352.4797,-242.5494"/>
</g>
<!-- simulation/LuaSimulation.ts&#45;&gt;graph/index.ts -->
<g id="edge41" class="edge">
<title>simulation/LuaSimulation.ts&#45;&gt;graph/index.ts</title>
<path fill="none" stroke="#757575" d="M1142.0042,-314.4025C1222.27,-308.0175 1340.9929,-296.9779 1443.6729,-281.0493 1489.2525,-273.9786 1540.2441,-263.1766 1578.6977,-254.435"/>
<polygon fill="#757575" stroke="#757575" points="1579.7275,-257.7898 1588.6934,-252.145 1578.1643,-250.9666 1579.7275,-257.7898"/>
</g>
<!-- simulation/stdlib.ts -->
<g id="node31" class="node">
<title>simulation/stdlib.ts</title>
<path fill="none" stroke="#c6c5fe" d="M1371.2076,-352.1482C1371.2076,-352.1482 1256.5805,-352.1482 1256.5805,-352.1482 1252.5475,-352.1482 1248.5146,-348.1152 1248.5146,-344.0823 1248.5146,-344.0823 1248.5146,-336.0164 1248.5146,-336.0164 1248.5146,-331.9834 1252.5475,-327.9505 1256.5805,-327.9505 1256.5805,-327.9505 1371.2076,-327.9505 1371.2076,-327.9505 1375.2406,-327.9505 1379.2735,-331.9834 1379.2735,-336.0164 1379.2735,-336.0164 1379.2735,-344.0823 1379.2735,-344.0823 1379.2735,-348.1152 1375.2406,-352.1482 1371.2076,-352.1482"/>
<text text-anchor="middle" x="1313.894" y="-336.8986" font-family="Arial" font-size="14.00" fill="#c6c5fe">simulation/stdlib.ts</text>
</g>
<!-- simulation/LuaSimulation.ts&#45;&gt;simulation/stdlib.ts -->
<g id="edge42" class="edge">
<title>simulation/LuaSimulation.ts&#45;&gt;simulation/stdlib.ts</title>
<path fill="none" stroke="#757575" d="M1142.1787,-327.748C1173.8009,-330.0134 1208.681,-332.5121 1238.6975,-334.6624"/>
<polygon fill="#757575" stroke="#757575" points="1238.4542,-338.1539 1248.6788,-335.3774 1238.9545,-331.1717 1238.4542,-338.1539"/>
</g>
<!-- index.scss -->
<g id="node28" class="node">
<title>index.scss</title>
<path fill="none" stroke="#cfffac" d="M211.4652,-334.1482C211.4652,-334.1482 145.8786,-334.1482 145.8786,-334.1482 141.8456,-334.1482 137.8127,-330.1152 137.8127,-326.0823 137.8127,-326.0823 137.8127,-318.0164 137.8127,-318.0164 137.8127,-313.9834 141.8456,-309.9505 145.8786,-309.9505 145.8786,-309.9505 211.4652,-309.9505 211.4652,-309.9505 215.4981,-309.9505 219.5311,-313.9834 219.5311,-318.0164 219.5311,-318.0164 219.5311,-326.0823 219.5311,-326.0823 219.5311,-330.1152 215.4981,-334.1482 211.4652,-334.1482"/>
<text text-anchor="middle" x="178.6719" y="-318.8986" font-family="Arial" font-size="14.00" fill="#cfffac">index.scss</text>
</g>
<!-- index.tsx -->
<g id="node29" class="node">
<title>index.tsx</title>
<path fill="none" stroke="#c6c5fe" d="M63.3066,-334.1482C63.3066,-334.1482 7.9414,-334.1482 7.9414,-334.1482 3.9085,-334.1482 -.1245,-330.1152 -.1245,-326.0823 -.1245,-326.0823 -.1245,-318.0164 -.1245,-318.0164 -.1245,-313.9834 3.9085,-309.9505 7.9414,-309.9505 7.9414,-309.9505 63.3066,-309.9505 63.3066,-309.9505 67.3396,-309.9505 71.3725,-313.9834 71.3725,-318.0164 71.3725,-318.0164 71.3725,-326.0823 71.3725,-326.0823 71.3725,-330.1152 67.3396,-334.1482 63.3066,-334.1482"/>
<text text-anchor="middle" x="35.624" y="-318.8986" font-family="Arial" font-size="14.00" fill="#c6c5fe">index.tsx</text>
</g>
<!-- index.tsx&#45;&gt;components/App.tsx -->
<g id="edge36" class="edge">
<title>index.tsx&#45;&gt;components/App.tsx</title>
<path fill="none" stroke="#757575" d="M71.352,-332.5393C88.3976,-337.5441 109.0978,-343.6218 127.7533,-349.0992"/>
<polygon fill="#757575" stroke="#757575" points="126.9995,-352.5256 137.5805,-351.9846 128.9716,-345.8091 126.9995,-352.5256"/>
</g>
<!-- index.tsx&#45;&gt;index.scss -->
<g id="edge37" class="edge">
<title>index.tsx&#45;&gt;index.scss</title>
<path fill="none" stroke="#757575" d="M71.352,-322.0493C88.3889,-322.0493 109.0766,-322.0493 127.7246,-322.0493"/>
<polygon fill="#757575" stroke="#757575" points="127.8387,-325.5494 137.8387,-322.0493 127.8386,-318.5494 127.8387,-325.5494"/>
</g>
<!-- serviceWorker.ts -->
<g id="node30" class="node">
<title>serviceWorker.ts</title>
<path fill="none" stroke="#cfffac" d="M230.3152,-292.1482C230.3152,-292.1482 127.0286,-292.1482 127.0286,-292.1482 122.9957,-292.1482 118.9627,-288.1152 118.9627,-284.0823 118.9627,-284.0823 118.9627,-276.0164 118.9627,-276.0164 118.9627,-271.9834 122.9957,-267.9505 127.0286,-267.9505 127.0286,-267.9505 230.3152,-267.9505 230.3152,-267.9505 234.3481,-267.9505 238.381,-271.9834 238.381,-276.0164 238.381,-276.0164 238.381,-284.0823 238.381,-284.0823 238.381,-288.1152 234.3481,-292.1482 230.3152,-292.1482"/>
<text text-anchor="middle" x="178.6719" y="-276.8986" font-family="Arial" font-size="14.00" fill="#cfffac">serviceWorker.ts</text>
</g>
<!-- index.tsx&#45;&gt;serviceWorker.ts -->
<g id="edge38" class="edge">
<title>index.tsx&#45;&gt;serviceWorker.ts</title>
<path fill="none" stroke="#757575" d="M71.352,-311.5593C88.3976,-306.5546 109.0978,-300.4768 127.7533,-294.9994"/>
<polygon fill="#757575" stroke="#757575" points="128.9716,-298.2895 137.5805,-292.1141 126.9995,-291.573 128.9716,-298.2895"/>
</g>
<!-- simulation/stdlib.ts&#45;&gt;graph/index.ts -->
<g id="edge43" class="edge">
<title>simulation/stdlib.ts&#45;&gt;graph/index.ts</title>
<path fill="none" stroke="#757575" d="M1379.0905,-329.1607C1399.9017,-325.1076 1422.9135,-320.0169 1443.6729,-314.0493 1500.0632,-297.839 1563.1998,-272.5618 1602.0327,-256.1527"/>
<polygon fill="#757575" stroke="#757575" points="1603.5315,-259.3187 1611.3629,-252.1828 1600.7909,-252.8775 1603.5315,-259.3187"/>
</g>
</g>
</svg>
