<?xml version="1.0" encoding="UTF-8" standalone="no"?>
<!DOCTYPE svg PUBLIC "-//W3C//DTD SVG 1.1//EN"
 "http://www.w3.org/Graphics/SVG/1.1/DTD/svg11.dtd">
<!-- Generated by graphviz version 2.40.1 (20161225.0304)
 -->
<!-- Title: G Pages: 1 -->
<svg width="2591pt" height="456pt"
 viewBox="0.00 0.00 2590.75 455.73" xmlns="http://www.w3.org/2000/svg" xmlns:xlink="http://www.w3.org/1999/xlink">
<g id="graph0" class="graph" transform="scale(1 1) rotate(0) translate(21.6 434.1336)">
<title>G</title>
<polygon fill="#111111" stroke="transparent" points="-21.6,21.6 -21.6,-434.1336 2569.1498,-434.1336 2569.1498,21.6 -21.6,21.6"/>
<!-- Timer.tsx -->
<g id="node1" class="node">
<title>Timer.tsx</title>
<path fill="none" stroke="#cfffac" d="M881.6797,-385.1482C881.6797,-385.1482 825.291,-385.1482 825.291,-385.1482 821.2581,-385.1482 817.2251,-381.1152 817.2251,-377.0823 817.2251,-377.0823 817.2251,-369.0164 817.2251,-369.0164 817.2251,-364.9834 821.2581,-360.9505 825.291,-360.9505 825.291,-360.9505 881.6797,-360.9505 881.6797,-360.9505 885.7126,-360.9505 889.7456,-364.9834 889.7456,-369.0164 889.7456,-369.0164 889.7456,-377.0823 889.7456,-377.0823 889.7456,-381.1152 885.7126,-385.1482 881.6797,-385.1482"/>
<text text-anchor="middle" x="853.4854" y="-369.8986" font-family="Arial" font-size="14.00" fill="#cfffac">Timer.tsx</text>
</g>
<!-- components/App.tsx -->
<g id="node2" class="node">
<title>components/App.tsx</title>
<path fill="none" stroke="#c6c5fe" d="M241.9537,-129.1482C241.9537,-129.1482 115.39,-129.1482 115.39,-129.1482 111.3571,-129.1482 107.3241,-125.1152 107.3241,-121.0823 107.3241,-121.0823 107.3241,-113.0164 107.3241,-113.0164 107.3241,-108.9834 111.3571,-104.9505 115.39,-104.9505 115.39,-104.9505 241.9537,-104.9505 241.9537,-104.9505 245.9867,-104.9505 250.0196,-108.9834 250.0196,-113.0164 250.0196,-113.0164 250.0196,-121.0823 250.0196,-121.0823 250.0196,-125.1152 245.9867,-129.1482 241.9537,-129.1482"/>
<text text-anchor="middle" x="178.6719" y="-113.8986" font-family="Arial" font-size="14.00" fill="#c6c5fe">components/App.tsx</text>
</g>
<!-- components/EditorPage.tsx -->
<g id="node3" class="node">
<title>components/EditorPage.tsx</title>
<path fill="none" stroke="#c6c5fe" d="M486.2262,-149.1482C486.2262,-149.1482 314.9457,-149.1482 314.9457,-149.1482 310.9127,-149.1482 306.8798,-145.1152 306.8798,-141.0823 306.8798,-141.0823 306.8798,-133.0164 306.8798,-133.0164 306.8798,-128.9834 310.9127,-124.9505 314.9457,-124.9505 314.9457,-124.9505 486.2262,-124.9505 486.2262,-124.9505 490.2592,-124.9505 494.2921,-128.9834 494.2921,-133.0164 494.2921,-133.0164 494.2921,-141.0823 494.2921,-141.0823 494.2921,-145.1152 490.2592,-149.1482 486.2262,-149.1482"/>
<text text-anchor="middle" x="400.5859" y="-133.8986" font-family="Arial" font-size="14.00" fill="#c6c5fe">components/EditorPage.tsx</text>
</g>
<!-- components/App.tsx&#45;&gt;components/EditorPage.tsx -->
<g id="edge1" class="edge">
<title>components/App.tsx&#45;&gt;components/EditorPage.tsx</title>
<path fill="none" stroke="#757575" d="M250.1084,-123.4875C264.8675,-124.8177 280.6996,-126.2446 296.3527,-127.6553"/>
<polygon fill="#757575" stroke="#757575" points="296.3262,-131.167 306.6001,-128.5788 296.9546,-124.1953 296.3262,-131.167"/>
</g>
<!-- components/VisualizationPage.tsx -->
<g id="node4" class="node">
<title>components/VisualizationPage.tsx</title>
<path fill="none" stroke="#c6c5fe" d="M507.0005,-269.1482C507.0005,-269.1482 294.1714,-269.1482 294.1714,-269.1482 290.1384,-269.1482 286.1055,-265.1152 286.1055,-261.0823 286.1055,-261.0823 286.1055,-253.0164 286.1055,-253.0164 286.1055,-248.9834 290.1384,-244.9505 294.1714,-244.9505 294.1714,-244.9505 507.0005,-244.9505 507.0005,-244.9505 511.0335,-244.9505 515.0664,-248.9834 515.0664,-253.0164 515.0664,-253.0164 515.0664,-261.0823 515.0664,-261.0823 515.0664,-265.1152 511.0335,-269.1482 507.0005,-269.1482"/>
<text text-anchor="middle" x="400.5859" y="-253.8986" font-family="Arial" font-size="14.00" fill="#c6c5fe">components/VisualizationPage.tsx</text>
</g>
<!-- components/App.tsx&#45;&gt;components/VisualizationPage.tsx -->
<g id="edge2" class="edge">
<title>components/App.tsx&#45;&gt;components/VisualizationPage.tsx</title>
<path fill="none" stroke="#757575" d="M197.9771,-129.2285C237.4219,-154.1132 327.3758,-210.8629 372.9816,-239.6344"/>
<polygon fill="#757575" stroke="#757575" points="371.1583,-242.6224 381.4834,-244.998 374.8933,-236.7021 371.1583,-242.6224"/>
</g>
<!-- examples/tutorial.lua -->
<g id="node5" class="node">
<title>examples/tutorial.lua</title>
<path fill="none" stroke="#cfffac" d="M464.92,-69.1482C464.92,-69.1482 336.2519,-69.1482 336.2519,-69.1482 332.2189,-69.1482 328.186,-65.1152 328.186,-61.0823 328.186,-61.0823 328.186,-53.0164 328.186,-53.0164 328.186,-48.9834 332.2189,-44.9505 336.2519,-44.9505 336.2519,-44.9505 464.92,-44.9505 464.92,-44.9505 468.953,-44.9505 472.9859,-48.9834 472.9859,-53.0164 472.9859,-53.0164 472.9859,-61.0823 472.9859,-61.0823 472.9859,-65.1152 468.953,-69.1482 464.92,-69.1482"/>
<text text-anchor="middle" x="400.5859" y="-53.8986" font-family="Arial" font-size="14.00" fill="#cfffac">examples/tutorial.lua</text>
</g>
<!-- components/App.tsx&#45;&gt;examples/tutorial.lua -->
<g id="edge3" class="edge">
<title>components/App.tsx&#45;&gt;examples/tutorial.lua</title>
<path fill="none" stroke="#757575" d="M221.4802,-104.9217C230.9377,-102.1148 240.8828,-99.0641 250.0957,-96.0493 266.2633,-90.7587 269.7703,-87.8309 286.0957,-83.0493 300.3998,-78.8598 315.8736,-74.9423 330.6819,-71.4832"/>
<polygon fill="#757575" stroke="#757575" points="331.8391,-74.8089 340.8049,-69.164 330.2758,-67.9856 331.8391,-74.8089"/>
</g>
<!-- simulation/index.ts -->
<g id="node6" class="node">
<title>simulation/index.ts</title>
<path fill="none" stroke="#c6c5fe" d="M911.0846,-150.1482C911.0846,-150.1482 795.8861,-150.1482 795.8861,-150.1482 791.8532,-150.1482 787.8202,-146.1152 787.8202,-142.0823 787.8202,-142.0823 787.8202,-134.0164 787.8202,-134.0164 787.8202,-129.9834 791.8532,-125.9505 795.8861,-125.9505 795.8861,-125.9505 911.0846,-125.9505 911.0846,-125.9505 915.1175,-125.9505 919.1505,-129.9834 919.1505,-134.0164 919.1505,-134.0164 919.1505,-142.0823 919.1505,-142.0823 919.1505,-146.1152 915.1175,-150.1482 911.0846,-150.1482"/>
<text text-anchor="middle" x="853.4854" y="-134.8986" font-family="Arial" font-size="14.00" fill="#c6c5fe">simulation/index.ts</text>
</g>
<!-- components/App.tsx&#45;&gt;simulation/index.ts -->
<g id="edge4" class="edge">
<title>components/App.tsx&#45;&gt;simulation/index.ts</title>
<path fill="none" stroke="#757575" d="M250.0342,-116.292C262.0712,-116.1909 274.4391,-116.1036 286.0957,-116.0493 387.8637,-115.5757 413.3607,-112.7465 515.0762,-116.0493 605.3299,-118.9799 708.9098,-126.2959 777.4508,-131.6905"/>
<polygon fill="#757575" stroke="#757575" points="777.4774,-135.2035 787.7229,-132.5052 778.0309,-128.2254 777.4774,-135.2035"/>
</g>
<!-- components/EditorPage.tsx&#45;&gt;simulation/index.ts -->
<g id="edge15" class="edge">
<title>components/EditorPage.tsx&#45;&gt;simulation/index.ts</title>
<path fill="none" stroke="#757575" d="M494.427,-137.2565C578.2384,-137.4416 699.4687,-137.7092 777.382,-137.8813"/>
<polygon fill="#757575" stroke="#757575" points="777.5994,-141.3817 787.6072,-137.9039 777.615,-134.3817 777.5994,-141.3817"/>
</g>
<!-- components/Layout.tsx -->
<g id="node13" class="node">
<title>components/Layout.tsx</title>
<path fill="none" stroke="#cfffac" d="M706.4644,-187.1482C706.4644,-187.1482 562.6528,-187.1482 562.6528,-187.1482 558.6199,-187.1482 554.5869,-183.1152 554.5869,-179.0823 554.5869,-179.0823 554.5869,-171.0164 554.5869,-171.0164 554.5869,-166.9834 558.6199,-162.9505 562.6528,-162.9505 562.6528,-162.9505 706.4644,-162.9505 706.4644,-162.9505 710.4973,-162.9505 714.5303,-166.9834 714.5303,-171.0164 714.5303,-171.0164 714.5303,-179.0823 714.5303,-179.0823 714.5303,-183.1152 710.4973,-187.1482 706.4644,-187.1482"/>
<text text-anchor="middle" x="634.5586" y="-171.8986" font-family="Arial" font-size="14.00" fill="#cfffac">components/Layout.tsx</text>
</g>
<!-- components/EditorPage.tsx&#45;&gt;components/Layout.tsx -->
<g id="edge13" class="edge">
<title>components/EditorPage.tsx&#45;&gt;components/Layout.tsx</title>
<path fill="none" stroke="#757575" d="M474.9378,-149.125C498.8119,-153.0024 525.4303,-157.3256 549.9813,-161.3129"/>
<polygon fill="#757575" stroke="#757575" points="549.5669,-164.7914 559.9987,-162.9399 550.6891,-157.882 549.5669,-164.7914"/>
</g>
<!-- examples/index.ts -->
<g id="node14" class="node">
<title>examples/index.ts</title>
<path fill="none" stroke="#c6c5fe" d="M690.5474,-68.1482C690.5474,-68.1482 578.5698,-68.1482 578.5698,-68.1482 574.5368,-68.1482 570.5039,-64.1152 570.5039,-60.0823 570.5039,-60.0823 570.5039,-52.0164 570.5039,-52.0164 570.5039,-47.9834 574.5368,-43.9505 578.5698,-43.9505 578.5698,-43.9505 690.5474,-43.9505 690.5474,-43.9505 694.5803,-43.9505 698.6133,-47.9834 698.6133,-52.0164 698.6133,-52.0164 698.6133,-60.0823 698.6133,-60.0823 698.6133,-64.1152 694.5803,-68.1482 690.5474,-68.1482"/>
<text text-anchor="middle" x="634.5586" y="-52.8986" font-family="Arial" font-size="14.00" fill="#c6c5fe">examples/index.ts</text>
</g>
<!-- components/EditorPage.tsx&#45;&gt;examples/index.ts -->
<g id="edge14" class="edge">
<title>components/EditorPage.tsx&#45;&gt;examples/index.ts</title>
<path fill="none" stroke="#757575" d="M435.614,-124.9228C476.8261,-110.6554 545.3089,-86.9471 590.1945,-71.4079"/>
<polygon fill="#757575" stroke="#757575" points="591.369,-74.7052 599.6737,-68.1263 589.0789,-68.0904 591.369,-74.7052"/>
</g>
<!-- components/VisualizationPage.tsx&#45;&gt;simulation/index.ts -->
<g id="edge28" class="edge">
<title>components/VisualizationPage.tsx&#45;&gt;simulation/index.ts</title>
<path fill="none" stroke="#757575" d="M515.4156,-265.7199C577.1864,-266.5759 653.6788,-261.3888 718.041,-238.0493 765.3993,-220.876 810.3804,-181.5017 834.7203,-157.603"/>
<polygon fill="#757575" stroke="#757575" points="837.2874,-159.9855 841.8745,-150.4352 832.3329,-155.0405 837.2874,-159.9855"/>
</g>
<!-- components/VisualizationPage.tsx&#45;&gt;components/Layout.tsx -->
<g id="edge24" class="edge">
<title>components/VisualizationPage.tsx&#45;&gt;components/Layout.tsx</title>
<path fill="none" stroke="#757575" d="M427.3527,-244.8815C457.1245,-231.6598 506.86,-210.4948 551.0762,-196.0493 557.8152,-193.8477 564.9232,-191.7409 572.0321,-189.7694"/>
<polygon fill="#757575" stroke="#757575" points="572.9458,-193.1481 581.6921,-187.1687 571.126,-186.3888 572.9458,-193.1481"/>
</g>
<!-- components/GraphView.tsx -->
<g id="node17" class="node">
<title>components/GraphView.tsx</title>
<path fill="none" stroke="#c6c5fe" d="M1170.2145,-388.1482C1170.2145,-388.1482 1000.0121,-388.1482 1000.0121,-388.1482 995.9792,-388.1482 991.9462,-384.1152 991.9462,-380.0823 991.9462,-380.0823 991.9462,-372.0164 991.9462,-372.0164 991.9462,-367.9834 995.9792,-363.9505 1000.0121,-363.9505 1000.0121,-363.9505 1170.2145,-363.9505 1170.2145,-363.9505 1174.2474,-363.9505 1178.2803,-367.9834 1178.2803,-372.0164 1178.2803,-372.0164 1178.2803,-380.0823 1178.2803,-380.0823 1178.2803,-384.1152 1174.2474,-388.1482 1170.2145,-388.1482"/>
<text text-anchor="middle" x="1085.1133" y="-372.8986" font-family="Arial" font-size="14.00" fill="#c6c5fe">components/GraphView.tsx</text>
</g>
<!-- components/VisualizationPage.tsx&#45;&gt;components/GraphView.tsx -->
<g id="edge23" class="edge">
<title>components/VisualizationPage.tsx&#45;&gt;components/GraphView.tsx</title>
<path fill="none" stroke="#757575" d="M467.2354,-269.1534C493.3686,-273.8611 523.619,-279.2633 551.0762,-284.0493 729.526,-315.155 774.5124,-320.7577 952.9297,-352.0493 971.3319,-355.2768 991.1599,-358.8343 1009.7196,-362.1993"/>
<polygon fill="#757575" stroke="#757575" points="1009.1233,-365.6482 1019.5879,-363.9919 1010.3745,-358.7609 1009.1233,-365.6482"/>
</g>
<!-- components/MetricsView.tsx -->
<g id="node18" class="node">
<title>components/MetricsView.tsx</title>
<path fill="none" stroke="#c6c5fe" d="M1173.4149,-307.1482C1173.4149,-307.1482 996.8116,-307.1482 996.8116,-307.1482 992.7787,-307.1482 988.7457,-303.1152 988.7457,-299.0823 988.7457,-299.0823 988.7457,-291.0164 988.7457,-291.0164 988.7457,-286.9834 992.7787,-282.9505 996.8116,-282.9505 996.8116,-282.9505 1173.4149,-282.9505 1173.4149,-282.9505 1177.4479,-282.9505 1181.4808,-286.9834 1181.4808,-291.0164 1181.4808,-291.0164 1181.4808,-299.0823 1181.4808,-299.0823 1181.4808,-303.1152 1177.4479,-307.1482 1173.4149,-307.1482"/>
<text text-anchor="middle" x="1085.1133" y="-291.8986" font-family="Arial" font-size="14.00" fill="#c6c5fe">components/MetricsView.tsx</text>
</g>
<!-- components/VisualizationPage.tsx&#45;&gt;components/MetricsView.tsx -->
<g id="edge25" class="edge">
<title>components/VisualizationPage.tsx&#45;&gt;components/MetricsView.tsx</title>
<path fill="none" stroke="#757575" d="M515.1604,-263.4097C644.3955,-270.5839 852.8941,-282.1582 978.6816,-289.141"/>
<polygon fill="#757575" stroke="#757575" points="978.5372,-292.6383 988.7159,-289.698 978.9253,-285.649 978.5372,-292.6383"/>
</g>
<!-- hooks/useSimulation.tsx -->
<g id="node21" class="node">
<title>hooks/useSimulation.tsx</title>
<path fill="none" stroke="#c6c5fe" d="M709.9576,-229.1482C709.9576,-229.1482 559.1596,-229.1482 559.1596,-229.1482 555.1267,-229.1482 551.0937,-225.1152 551.0937,-221.0823 551.0937,-221.0823 551.0937,-213.0164 551.0937,-213.0164 551.0937,-208.9834 555.1267,-204.9505 559.1596,-204.9505 559.1596,-204.9505 709.9576,-204.9505 709.9576,-204.9505 713.9905,-204.9505 718.0234,-208.9834 718.0234,-213.0164 718.0234,-213.0164 718.0234,-221.0823 718.0234,-221.0823 718.0234,-225.1152 713.9905,-229.1482 709.9576,-229.1482"/>
<text text-anchor="middle" x="634.5586" y="-213.8986" font-family="Arial" font-size="14.00" fill="#c6c5fe">hooks/useSimulation.tsx</text>
</g>
<!-- components/VisualizationPage.tsx&#45;&gt;hooks/useSimulation.tsx -->
<g id="edge26" class="edge">
<title>components/VisualizationPage.tsx&#45;&gt;hooks/useSimulation.tsx</title>
<path fill="none" stroke="#757575" d="M471.1027,-244.9938C497.1126,-240.5471 526.782,-235.4748 553.64,-230.8832"/>
<polygon fill="#757575" stroke="#757575" points="554.5153,-234.2844 563.7825,-229.1492 553.3357,-227.3845 554.5153,-234.2844"/>
</g>
<!-- hooks/useTimer.tsx -->
<g id="node22" class="node">
<title>hooks/useTimer.tsx</title>
<path fill="none" stroke="#c6c5fe" d="M694.5728,-385.1482C694.5728,-385.1482 574.5444,-385.1482 574.5444,-385.1482 570.5114,-385.1482 566.4785,-381.1152 566.4785,-377.0823 566.4785,-377.0823 566.4785,-369.0164 566.4785,-369.0164 566.4785,-364.9834 570.5114,-360.9505 574.5444,-360.9505 574.5444,-360.9505 694.5728,-360.9505 694.5728,-360.9505 698.6058,-360.9505 702.6387,-364.9834 702.6387,-369.0164 702.6387,-369.0164 702.6387,-377.0823 702.6387,-377.0823 702.6387,-381.1152 698.6058,-385.1482 694.5728,-385.1482"/>
<text text-anchor="middle" x="634.5586" y="-369.8986" font-family="Arial" font-size="14.00" fill="#c6c5fe">hooks/useTimer.tsx</text>
</g>
<!-- components/VisualizationPage.tsx&#45;&gt;hooks/useTimer.tsx -->
<g id="edge27" class="edge">
<title>components/VisualizationPage.tsx&#45;&gt;hooks/useTimer.tsx</title>
<path fill="none" stroke="#757575" d="M417.9116,-269.2834C445.1706,-288.0907 500.2184,-324.3101 551.0762,-347.0493 559.9215,-351.0042 569.5457,-354.6032 579.0105,-357.778"/>
<polygon fill="#757575" stroke="#757575" points="578.1851,-361.1893 588.7768,-360.93 580.3352,-354.5277 578.1851,-361.1893"/>
</g>
<!-- simulation/LuaSimulation.ts -->
<g id="node32" class="node">
<title>simulation/LuaSimulation.ts</title>
<path fill="none" stroke="#c6c5fe" d="M1170.4678,-166.1482C1170.4678,-166.1482 999.7588,-166.1482 999.7588,-166.1482 995.7258,-166.1482 991.6929,-162.1152 991.6929,-158.0823 991.6929,-158.0823 991.6929,-150.0164 991.6929,-150.0164 991.6929,-145.9834 995.7258,-141.9505 999.7588,-141.9505 999.7588,-141.9505 1170.4678,-141.9505 1170.4678,-141.9505 1174.5007,-141.9505 1178.5337,-145.9834 1178.5337,-150.0164 1178.5337,-150.0164 1178.5337,-158.0823 1178.5337,-158.0823 1178.5337,-162.1152 1174.5007,-166.1482 1170.4678,-166.1482"/>
<text text-anchor="middle" x="1085.1133" y="-150.8986" font-family="Arial" font-size="14.00" fill="#c6c5fe">simulation/LuaSimulation.ts</text>
</g>
<!-- simulation/index.ts&#45;&gt;simulation/LuaSimulation.ts -->
<g id="edge49" class="edge">
<title>simulation/index.ts&#45;&gt;simulation/LuaSimulation.ts</title>
<path fill="none" stroke="#757575" d="M919.241,-142.5915C938.6388,-143.9314 960.3565,-145.4316 981.5234,-146.8937"/>
<polygon fill="#757575" stroke="#757575" points="981.3098,-150.3872 991.5273,-147.5847 981.7923,-143.4038 981.3098,-150.3872"/>
</g>
<!-- simulation/TickResult.tsx -->
<g id="node33" class="node">
<title>simulation/TickResult.tsx</title>
<path fill="none" stroke="#c6c5fe" d="M1447.5193,-101.1482C1447.5193,-101.1482 1294.6067,-101.1482 1294.6067,-101.1482 1290.5738,-101.1482 1286.5408,-97.1152 1286.5408,-93.0823 1286.5408,-93.0823 1286.5408,-85.0164 1286.5408,-85.0164 1286.5408,-80.9834 1290.5738,-76.9505 1294.6067,-76.9505 1294.6067,-76.9505 1447.5193,-76.9505 1447.5193,-76.9505 1451.5522,-76.9505 1455.5851,-80.9834 1455.5851,-85.0164 1455.5851,-85.0164 1455.5851,-93.0823 1455.5851,-93.0823 1455.5851,-97.1152 1451.5522,-101.1482 1447.5193,-101.1482"/>
<text text-anchor="middle" x="1371.063" y="-85.8986" font-family="Arial" font-size="14.00" fill="#c6c5fe">simulation/TickResult.tsx</text>
</g>
<!-- simulation/index.ts&#45;&gt;simulation/TickResult.tsx -->
<g id="edge51" class="edge">
<title>simulation/index.ts&#45;&gt;simulation/TickResult.tsx</title>
<path fill="none" stroke="#757575" d="M919.2996,-131.8186C1009.6791,-123.2622 1172.7587,-107.8231 1276.281,-98.0225"/>
<polygon fill="#757575" stroke="#757575" points="1276.7942,-101.4897 1286.4198,-97.0626 1276.1344,-94.5208 1276.7942,-101.4897"/>
</g>
<!-- simulation/SimulationError.tsx -->
<g id="node35" class="node">
<title>simulation/SimulationError.tsx</title>
<path fill="none" stroke="#cfffac" d="M1812.5073,-59.1482C1812.5073,-59.1482 1627.8394,-59.1482 1627.8394,-59.1482 1623.8065,-59.1482 1619.7735,-55.1152 1619.7735,-51.0823 1619.7735,-51.0823 1619.7735,-43.0164 1619.7735,-43.0164 1619.7735,-38.9834 1623.8065,-34.9505 1627.8394,-34.9505 1627.8394,-34.9505 1812.5073,-34.9505 1812.5073,-34.9505 1816.5402,-34.9505 1820.5732,-38.9834 1820.5732,-43.0164 1820.5732,-43.0164 1820.5732,-51.0823 1820.5732,-51.0823 1820.5732,-55.1152 1816.5402,-59.1482 1812.5073,-59.1482"/>
<text text-anchor="middle" x="1720.1733" y="-43.8986" font-family="Arial" font-size="14.00" fill="#cfffac">simulation/SimulationError.tsx</text>
</g>
<!-- simulation/index.ts&#45;&gt;simulation/SimulationError.tsx -->
<g id="edge50" class="edge">
<title>simulation/index.ts&#45;&gt;simulation/SimulationError.tsx</title>
<path fill="none" stroke="#757575" d="M918.3298,-125.9512C929.9343,-123.3346 941.8529,-120.3488 952.9297,-117.0493 969.3826,-112.1485 972.346,-107.4873 988.9297,-103.0493 1203.1812,-45.713 1464.4306,-40.4769 1609.5188,-42.9853"/>
<polygon fill="#757575" stroke="#757575" points="1609.6978,-46.4892 1619.7621,-43.1787 1609.83,-39.4904 1609.6978,-46.4892"/>
</g>
<!-- components/DistributionChart/Chart.tsx -->
<g id="node7" class="node">
<title>components/DistributionChart/Chart.tsx</title>
<path fill="none" stroke="#c6c5fe" d="M1842.4309,-185.1482C1842.4309,-185.1482 1597.9158,-185.1482 1597.9158,-185.1482 1593.8828,-185.1482 1589.8499,-181.1152 1589.8499,-177.0823 1589.8499,-177.0823 1589.8499,-169.0164 1589.8499,-169.0164 1589.8499,-164.9834 1593.8828,-160.9505 1597.9158,-160.9505 1597.9158,-160.9505 1842.4309,-160.9505 1842.4309,-160.9505 1846.4638,-160.9505 1850.4968,-164.9834 1850.4968,-169.0164 1850.4968,-169.0164 1850.4968,-177.0823 1850.4968,-177.0823 1850.4968,-181.1152 1846.4638,-185.1482 1842.4309,-185.1482"/>
<text text-anchor="middle" x="1720.1733" y="-169.8986" font-family="Arial" font-size="14.00" fill="#c6c5fe">components/DistributionChart/Chart.tsx</text>
</g>
<!-- components/DistributionChart/types.tsx -->
<g id="node8" class="node">
<title>components/DistributionChart/types.tsx</title>
<path fill="none" stroke="#cfffac" d="M2166.7782,-164.1482C2166.7782,-164.1482 1923.8077,-164.1482 1923.8077,-164.1482 1919.7747,-164.1482 1915.7418,-160.1152 1915.7418,-156.0823 1915.7418,-156.0823 1915.7418,-148.0164 1915.7418,-148.0164 1915.7418,-143.9834 1919.7747,-139.9505 1923.8077,-139.9505 1923.8077,-139.9505 2166.7782,-139.9505 2166.7782,-139.9505 2170.8112,-139.9505 2174.8441,-143.9834 2174.8441,-148.0164 2174.8441,-148.0164 2174.8441,-156.0823 2174.8441,-156.0823 2174.8441,-160.1152 2170.8112,-164.1482 2166.7782,-164.1482"/>
<text text-anchor="middle" x="2045.293" y="-148.8986" font-family="Arial" font-size="14.00" fill="#cfffac">components/DistributionChart/types.tsx</text>
</g>
<!-- components/DistributionChart/Chart.tsx&#45;&gt;components/DistributionChart/types.tsx -->
<g id="edge5" class="edge">
<title>components/DistributionChart/Chart.tsx&#45;&gt;components/DistributionChart/types.tsx</title>
<path fill="none" stroke="#757575" d="M1850.5386,-164.6288C1868.6492,-163.459 1887.3151,-162.2534 1905.588,-161.0731"/>
<polygon fill="#757575" stroke="#757575" points="1905.9395,-164.5578 1915.6931,-160.4204 1905.4883,-157.5723 1905.9395,-164.5578"/>
</g>
<!-- components/DistributionChart/ConfigControls.tsx -->
<g id="node9" class="node">
<title>components/DistributionChart/ConfigControls.tsx</title>
<path fill="none" stroke="#c6c5fe" d="M1871.2961,-143.1482C1871.2961,-143.1482 1569.0506,-143.1482 1569.0506,-143.1482 1565.0177,-143.1482 1560.9847,-139.1152 1560.9847,-135.0823 1560.9847,-135.0823 1560.9847,-127.0164 1560.9847,-127.0164 1560.9847,-122.9834 1565.0177,-118.9505 1569.0506,-118.9505 1569.0506,-118.9505 1871.2961,-118.9505 1871.2961,-118.9505 1875.329,-118.9505 1879.362,-122.9834 1879.362,-127.0164 1879.362,-127.0164 1879.362,-135.0823 1879.362,-135.0823 1879.362,-139.1152 1875.329,-143.1482 1871.2961,-143.1482"/>
<text text-anchor="middle" x="1720.1733" y="-127.8986" font-family="Arial" font-size="14.00" fill="#c6c5fe">components/DistributionChart/ConfigControls.tsx</text>
</g>
<!-- components/DistributionChart/ConfigControls.tsx&#45;&gt;components/DistributionChart/types.tsx -->
<g id="edge6" class="edge">
<title>components/DistributionChart/ConfigControls.tsx&#45;&gt;components/DistributionChart/types.tsx</title>
<path fill="none" stroke="#757575" d="M1879.3996,-141.334C1888.0726,-141.8942 1896.7582,-142.4552 1905.3577,-143.0107"/>
<polygon fill="#757575" stroke="#757575" points="1905.2025,-146.5078 1915.4073,-143.6598 1905.6537,-139.5224 1905.2025,-146.5078"/>
</g>
<!-- components/DistributionChart/Statistics.tsx -->
<g id="node10" class="node">
<title>components/DistributionChart/Statistics.tsx</title>
<path fill="none" stroke="#cfffac" d="M1853.21,-265.1482C1853.21,-265.1482 1587.1367,-265.1482 1587.1367,-265.1482 1583.1037,-265.1482 1579.0708,-261.1152 1579.0708,-257.0823 1579.0708,-257.0823 1579.0708,-249.0164 1579.0708,-249.0164 1579.0708,-244.9834 1583.1037,-240.9505 1587.1367,-240.9505 1587.1367,-240.9505 1853.21,-240.9505 1853.21,-240.9505 1857.243,-240.9505 1861.2759,-244.9834 1861.2759,-249.0164 1861.2759,-249.0164 1861.2759,-257.0823 1861.2759,-257.0823 1861.2759,-261.1152 1857.243,-265.1482 1853.21,-265.1482"/>
<text text-anchor="middle" x="1720.1733" y="-249.8986" font-family="Arial" font-size="14.00" fill="#cfffac">components/DistributionChart/Statistics.tsx</text>
</g>
<!-- components/DistributionChart/distToData.ts -->
<g id="node11" class="node">
<title>components/DistributionChart/distToData.ts</title>
<path fill="none" stroke="#c6c5fe" d="M1854.8409,-101.1482C1854.8409,-101.1482 1585.5057,-101.1482 1585.5057,-101.1482 1581.4728,-101.1482 1577.4398,-97.1152 1577.4398,-93.0823 1577.4398,-93.0823 1577.4398,-85.0164 1577.4398,-85.0164 1577.4398,-80.9834 1581.4728,-76.9505 1585.5057,-76.9505 1585.5057,-76.9505 1854.8409,-76.9505 1854.8409,-76.9505 1858.8739,-76.9505 1862.9068,-80.9834 1862.9068,-85.0164 1862.9068,-85.0164 1862.9068,-93.0823 1862.9068,-93.0823 1862.9068,-97.1152 1858.8739,-101.1482 1854.8409,-101.1482"/>
<text text-anchor="middle" x="1720.1733" y="-85.8986" font-family="Arial" font-size="14.00" fill="#c6c5fe">components/DistributionChart/distToData.ts</text>
</g>
<!-- components/DistributionChart/distToData.ts&#45;&gt;components/DistributionChart/types.tsx -->
<g id="edge7" class="edge">
<title>components/DistributionChart/distToData.ts&#45;&gt;components/DistributionChart/types.tsx</title>
<path fill="none" stroke="#757575" d="M1825.4519,-101.15C1843.5441,-103.7356 1862.1166,-106.7103 1879.5176,-110.0493 1918.097,-117.4523 1961.0807,-128.4223 1993.6103,-137.2946"/>
<polygon fill="#757575" stroke="#757575" points="1992.7835,-140.6971 2003.3536,-139.9744 1994.6399,-133.9477 1992.7835,-140.6971"/>
</g>
<!-- components/DistributionChart/index.tsx -->
<g id="node12" class="node">
<title>components/DistributionChart/index.tsx</title>
<path fill="none" stroke="#c6c5fe" d="M1492.5551,-143.1482C1492.5551,-143.1482 1249.5709,-143.1482 1249.5709,-143.1482 1245.5379,-143.1482 1241.505,-139.1152 1241.505,-135.0823 1241.505,-135.0823 1241.505,-127.0164 1241.505,-127.0164 1241.505,-122.9834 1245.5379,-118.9505 1249.5709,-118.9505 1249.5709,-118.9505 1492.5551,-118.9505 1492.5551,-118.9505 1496.588,-118.9505 1500.621,-122.9834 1500.621,-127.0164 1500.621,-127.0164 1500.621,-135.0823 1500.621,-135.0823 1500.621,-139.1152 1496.588,-143.1482 1492.5551,-143.1482"/>
<text text-anchor="middle" x="1371.063" y="-127.8986" font-family="Arial" font-size="14.00" fill="#c6c5fe">components/DistributionChart/index.tsx</text>
</g>
<!-- components/DistributionChart/index.tsx&#45;&gt;components/DistributionChart/Chart.tsx -->
<g id="edge8" class="edge">
<title>components/DistributionChart/index.tsx&#45;&gt;components/DistributionChart/Chart.tsx</title>
<path fill="none" stroke="#757575" d="M1471.5718,-143.1411C1514.8313,-148.3455 1565.5388,-154.4459 1609.8352,-159.775"/>
<polygon fill="#757575" stroke="#757575" points="1609.4232,-163.2506 1619.7697,-160.9702 1610.2593,-156.3007 1609.4232,-163.2506"/>
</g>
<!-- components/DistributionChart/index.tsx&#45;&gt;components/DistributionChart/types.tsx -->
<g id="edge12" class="edge">
<title>components/DistributionChart/index.tsx&#45;&gt;components/DistributionChart/types.tsx</title>
<path fill="none" stroke="#757575" d="M1489.4568,-143.1491C1501.7719,-146.7147 1513.8013,-151.2618 1524.8291,-157.0493 1545.1451,-167.7114 1539.6924,-185.1241 1560.8291,-194.0493 1691.3125,-249.1473 1738.967,-211.577 1879.5176,-194.0493 1920.5014,-188.9383 1965.8943,-176.9802 1998.803,-167.1255"/>
<polygon fill="#757575" stroke="#757575" points="2000.049,-170.4049 2008.5965,-164.1446 1998.0106,-163.7082 2000.049,-170.4049"/>
</g>
<!-- components/DistributionChart/index.tsx&#45;&gt;components/DistributionChart/ConfigControls.tsx -->
<g id="edge9" class="edge">
<title>components/DistributionChart/index.tsx&#45;&gt;components/DistributionChart/ConfigControls.tsx</title>
<path fill="none" stroke="#757575" d="M1501.0588,-131.0493C1517.1932,-131.0493 1533.872,-131.0493 1550.4917,-131.0493"/>
<polygon fill="#757575" stroke="#757575" points="1550.8269,-134.5494 1560.8269,-131.0493 1550.8269,-127.5494 1550.8269,-134.5494"/>
</g>
<!-- components/DistributionChart/index.tsx&#45;&gt;components/DistributionChart/Statistics.tsx -->
<g id="edge10" class="edge">
<title>components/DistributionChart/index.tsx&#45;&gt;components/DistributionChart/Statistics.tsx</title>
<path fill="none" stroke="#757575" d="M1499.8939,-143.2143C1508.7506,-146.9026 1517.1814,-151.454 1524.8291,-157.0493 1553.0634,-177.7066 1532.5354,-206.4734 1560.8291,-227.0493 1565.7667,-230.6401 1571.0177,-233.808 1576.4928,-236.5991"/>
<polygon fill="#757575" stroke="#757575" points="1575.3574,-239.9301 1585.9031,-240.9487 1578.2943,-233.576 1575.3574,-239.9301"/>
</g>
<!-- components/DistributionChart/index.tsx&#45;&gt;components/DistributionChart/distToData.ts -->
<g id="edge11" class="edge">
<title>components/DistributionChart/index.tsx&#45;&gt;components/DistributionChart/distToData.ts</title>
<path fill="none" stroke="#757575" d="M1471.5718,-118.9575C1514.8313,-113.7532 1565.5388,-107.6528 1609.8352,-102.3236"/>
<polygon fill="#757575" stroke="#757575" points="1610.2593,-105.7979 1619.7697,-101.1285 1609.4232,-98.8481 1610.2593,-105.7979"/>
</g>
<!-- examples/barabasi_albert.lua -->
<g id="node23" class="node">
<title>examples/barabasi_albert.lua</title>
<path fill="none" stroke="#cfffac" d="M944.8082,-108.1482C944.8082,-108.1482 762.1625,-108.1482 762.1625,-108.1482 758.1296,-108.1482 754.0966,-104.1152 754.0966,-100.0823 754.0966,-100.0823 754.0966,-92.0164 754.0966,-92.0164 754.0966,-87.9834 758.1296,-83.9505 762.1625,-83.9505 762.1625,-83.9505 944.8082,-83.9505 944.8082,-83.9505 948.8411,-83.9505 952.8741,-87.9834 952.8741,-92.0164 952.8741,-92.0164 952.8741,-100.0823 952.8741,-100.0823 952.8741,-104.1152 948.8411,-108.1482 944.8082,-108.1482"/>
<text text-anchor="middle" x="853.4854" y="-92.8986" font-family="Arial" font-size="14.00" fill="#cfffac">examples/barabasi_albert.lua</text>
</g>
<!-- examples/index.ts&#45;&gt;examples/barabasi_albert.lua -->
<g id="edge29" class="edge">
<title>examples/index.ts&#45;&gt;examples/barabasi_albert.lua</title>
<path fill="none" stroke="#757575" d="M698.7646,-67.7804C723.3805,-72.2779 751.7025,-77.4526 777.3318,-82.1353"/>
<polygon fill="#757575" stroke="#757575" points="776.9145,-85.617 787.3808,-83.9714 778.1727,-78.731 776.9145,-85.617"/>
</g>
<!-- examples/gnp.lua -->
<g id="node24" class="node">
<title>examples/gnp.lua</title>
<path fill="none" stroke="#cfffac" d="M908.157,-66.1482C908.157,-66.1482 798.8137,-66.1482 798.8137,-66.1482 794.7807,-66.1482 790.7478,-62.1152 790.7478,-58.0823 790.7478,-58.0823 790.7478,-50.0164 790.7478,-50.0164 790.7478,-45.9834 794.7807,-41.9505 798.8137,-41.9505 798.8137,-41.9505 908.157,-41.9505 908.157,-41.9505 912.19,-41.9505 916.2229,-45.9834 916.2229,-50.0164 916.2229,-50.0164 916.2229,-58.0823 916.2229,-58.0823 916.2229,-62.1152 912.19,-66.1482 908.157,-66.1482"/>
<text text-anchor="middle" x="853.4854" y="-50.8986" font-family="Arial" font-size="14.00" fill="#cfffac">examples/gnp.lua</text>
</g>
<!-- examples/index.ts&#45;&gt;examples/gnp.lua -->
<g id="edge30" class="edge">
<title>examples/index.ts&#45;&gt;examples/gnp.lua</title>
<path fill="none" stroke="#757575" d="M698.7646,-55.4628C724.2716,-55.2297 753.7578,-54.9604 780.1041,-54.7197"/>
<polygon fill="#757575" stroke="#757575" points="780.4458,-58.2168 790.4134,-54.6255 780.3818,-51.2171 780.4458,-58.2168"/>
</g>
<!-- examples/nrrw.lua -->
<g id="node25" class="node">
<title>examples/nrrw.lua</title>
<path fill="none" stroke="#cfffac" d="M909.7467,-24.1482C909.7467,-24.1482 797.224,-24.1482 797.224,-24.1482 793.191,-24.1482 789.1581,-20.1152 789.1581,-16.0823 789.1581,-16.0823 789.1581,-8.0164 789.1581,-8.0164 789.1581,-3.9834 793.191,.0495 797.224,.0495 797.224,.0495 909.7467,.0495 909.7467,.0495 913.7797,.0495 917.8126,-3.9834 917.8126,-8.0164 917.8126,-8.0164 917.8126,-16.0823 917.8126,-16.0823 917.8126,-20.1152 913.7797,-24.1482 909.7467,-24.1482"/>
<text text-anchor="middle" x="853.4854" y="-8.8986" font-family="Arial" font-size="14.00" fill="#cfffac">examples/nrrw.lua</text>
</g>
<!-- examples/index.ts&#45;&gt;examples/nrrw.lua -->
<g id="edge31" class="edge">
<title>examples/index.ts&#45;&gt;examples/nrrw.lua</title>
<path fill="none" stroke="#757575" d="M694.6709,-43.9679C722.1866,-38.4378 754.9641,-31.8502 783.576,-26.0997"/>
<polygon fill="#757575" stroke="#757575" points="784.3929,-29.5056 793.5072,-24.1038 783.0135,-22.6429 784.3929,-29.5056"/>
</g>
<!-- components/GraphGeneralStatisticsDisplay.tsx -->
<g id="node15" class="node">
<title>components/GraphGeneralStatisticsDisplay.tsx</title>
<path fill="none" stroke="#c6c5fe" d="M1516.5297,-387.1482C1516.5297,-387.1482 1225.5963,-387.1482 1225.5963,-387.1482 1221.5634,-387.1482 1217.5304,-383.1152 1217.5304,-379.0823 1217.5304,-379.0823 1217.5304,-371.0164 1217.5304,-371.0164 1217.5304,-366.9834 1221.5634,-362.9505 1225.5963,-362.9505 1225.5963,-362.9505 1516.5297,-362.9505 1516.5297,-362.9505 1520.5626,-362.9505 1524.5956,-366.9834 1524.5956,-371.0164 1524.5956,-371.0164 1524.5956,-379.0823 1524.5956,-379.0823 1524.5956,-383.1152 1520.5626,-387.1482 1516.5297,-387.1482"/>
<text text-anchor="middle" x="1371.063" y="-371.8986" font-family="Arial" font-size="14.00" fill="#c6c5fe">components/GraphGeneralStatisticsDisplay.tsx</text>
</g>
<!-- graph/index.ts -->
<g id="node16" class="node">
<title>graph/index.ts</title>
<path fill="none" stroke="#c6c5fe" d="M1764.0518,-307.1482C1764.0518,-307.1482 1676.2949,-307.1482 1676.2949,-307.1482 1672.2619,-307.1482 1668.229,-303.1152 1668.229,-299.0823 1668.229,-299.0823 1668.229,-291.0164 1668.229,-291.0164 1668.229,-286.9834 1672.2619,-282.9505 1676.2949,-282.9505 1676.2949,-282.9505 1764.0518,-282.9505 1764.0518,-282.9505 1768.0847,-282.9505 1772.1177,-286.9834 1772.1177,-291.0164 1772.1177,-291.0164 1772.1177,-299.0823 1772.1177,-299.0823 1772.1177,-303.1152 1768.0847,-307.1482 1764.0518,-307.1482"/>
<text text-anchor="middle" x="1720.1733" y="-291.8986" font-family="Arial" font-size="14.00" fill="#c6c5fe">graph/index.ts</text>
</g>
<!-- components/GraphGeneralStatisticsDisplay.tsx&#45;&gt;graph/index.ts -->
<g id="edge16" class="edge">
<title>components/GraphGeneralStatisticsDisplay.tsx&#45;&gt;graph/index.ts</title>
<path fill="none" stroke="#757575" d="M1451.9661,-362.9631C1475.5543,-359.0096 1501.3063,-354.2749 1524.8291,-349.0493 1575.1765,-337.8646 1631.9101,-321.7847 1671.2111,-310.0821"/>
<polygon fill="#757575" stroke="#757575" points="1672.2371,-313.4285 1680.8128,-307.2069 1670.229,-306.7227 1672.2371,-313.4285"/>
</g>
<!-- graph/AdjacencyListGraph.ts -->
<g id="node26" class="node">
<title>graph/AdjacencyListGraph.ts</title>
<path fill="none" stroke="#c6c5fe" d="M2134.9919,-307.1482C2134.9919,-307.1482 1955.5941,-307.1482 1955.5941,-307.1482 1951.5611,-307.1482 1947.5282,-303.1152 1947.5282,-299.0823 1947.5282,-299.0823 1947.5282,-291.0164 1947.5282,-291.0164 1947.5282,-286.9834 1951.5611,-282.9505 1955.5941,-282.9505 1955.5941,-282.9505 2134.9919,-282.9505 2134.9919,-282.9505 2139.0248,-282.9505 2143.0578,-286.9834 2143.0578,-291.0164 2143.0578,-291.0164 2143.0578,-299.0823 2143.0578,-299.0823 2143.0578,-303.1152 2139.0248,-307.1482 2134.9919,-307.1482"/>
<text text-anchor="middle" x="2045.293" y="-291.8986" font-family="Arial" font-size="14.00" fill="#c6c5fe">graph/AdjacencyListGraph.ts</text>
</g>
<!-- graph/index.ts&#45;&gt;graph/AdjacencyListGraph.ts -->
<g id="edge35" class="edge">
<title>graph/index.ts&#45;&gt;graph/AdjacencyListGraph.ts</title>
<path fill="none" stroke="#757575" d="M1772.4094,-295.0493C1816.6827,-295.0493 1881.6278,-295.0493 1937.0535,-295.0493"/>
<polygon fill="#757575" stroke="#757575" points="1937.2848,-298.5494 1947.2848,-295.0493 1937.2848,-291.5494 1937.2848,-298.5494"/>
</g>
<!-- graph/AdjacencyListVertex.ts -->
<g id="node27" class="node">
<title>graph/AdjacencyListVertex.ts</title>
<path fill="none" stroke="#c6c5fe" d="M2399.3189,-268.1482C2399.3189,-268.1482 2219.3617,-268.1482 2219.3617,-268.1482 2215.3288,-268.1482 2211.2959,-264.1152 2211.2959,-260.0823 2211.2959,-260.0823 2211.2959,-252.0164 2211.2959,-252.0164 2211.2959,-247.9834 2215.3288,-243.9505 2219.3617,-243.9505 2219.3617,-243.9505 2399.3189,-243.9505 2399.3189,-243.9505 2403.3519,-243.9505 2407.3848,-247.9834 2407.3848,-252.0164 2407.3848,-252.0164 2407.3848,-260.0823 2407.3848,-260.0823 2407.3848,-264.1152 2403.3519,-268.1482 2399.3189,-268.1482"/>
<text text-anchor="middle" x="2309.3403" y="-252.8986" font-family="Arial" font-size="14.00" fill="#c6c5fe">graph/AdjacencyListVertex.ts</text>
</g>
<!-- graph/index.ts&#45;&gt;graph/AdjacencyListVertex.ts -->
<g id="edge36" class="edge">
<title>graph/index.ts&#45;&gt;graph/AdjacencyListVertex.ts</title>
<path fill="none" stroke="#757575" d="M1772.3276,-288.5622C1811.6301,-283.8878 1866.8834,-277.7714 1915.5176,-274.0493 2011.6887,-266.6892 2121.3187,-261.9778 2200.4473,-259.2292"/>
<polygon fill="#757575" stroke="#757575" points="2201.0426,-262.711 2210.917,-258.8708 2200.803,-255.7151 2201.0426,-262.711"/>
</g>
<!-- graph/types.ts -->
<g id="node28" class="node">
<title>graph/types.ts</title>
<path fill="none" stroke="#cfffac" d="M2539.4527,-308.1482C2539.4527,-308.1482 2451.7094,-308.1482 2451.7094,-308.1482 2447.6765,-308.1482 2443.6435,-304.1152 2443.6435,-300.0823 2443.6435,-300.0823 2443.6435,-292.0164 2443.6435,-292.0164 2443.6435,-287.9834 2447.6765,-283.9505 2451.7094,-283.9505 2451.7094,-283.9505 2539.4527,-283.9505 2539.4527,-283.9505 2543.4856,-283.9505 2547.5186,-287.9834 2547.5186,-292.0164 2547.5186,-292.0164 2547.5186,-300.0823 2547.5186,-300.0823 2547.5186,-304.1152 2543.4856,-308.1482 2539.4527,-308.1482"/>
<text text-anchor="middle" x="2495.5811" y="-292.8986" font-family="Arial" font-size="14.00" fill="#cfffac">graph/types.ts</text>
</g>
<!-- graph/index.ts&#45;&gt;graph/types.ts -->
<g id="edge37" class="edge">
<title>graph/index.ts&#45;&gt;graph/types.ts</title>
<path fill="none" stroke="#757575" d="M1772.2853,-302.1862C1811.5662,-307.1922 1866.8111,-313.4388 1915.5176,-316.0493 2133.935,-327.7558 2189.7356,-328.3611 2407.6123,-309.0493 2416.0125,-308.3048 2424.8331,-307.286 2433.5123,-306.1441"/>
<polygon fill="#757575" stroke="#757575" points="2434.1725,-309.5863 2443.6022,-304.7559 2433.2184,-302.6516 2434.1725,-309.5863"/>
</g>
<!-- components/GraphView.tsx&#45;&gt;graph/index.ts -->
<g id="edge17" class="edge">
<title>components/GraphView.tsx&#45;&gt;graph/index.ts</title>
<path fill="none" stroke="#757575" d="M1139.183,-388.1312C1223.0915,-404.7449 1389.1305,-429.0545 1524.8291,-396.0493 1590.8333,-379.9955 1659.4488,-337.4702 1695.1635,-313.0237"/>
<polygon fill="#757575" stroke="#757575" points="1697.296,-315.804 1703.5131,-307.2251 1693.303,-310.0545 1697.296,-315.804"/>
</g>
<!-- components/MetricsView.tsx&#45;&gt;components/DistributionChart/index.tsx -->
<g id="edge18" class="edge">
<title>components/MetricsView.tsx&#45;&gt;components/DistributionChart/index.tsx</title>
<path fill="none" stroke="#757575" d="M1097.652,-282.8816C1120.0707,-261.6576 1169.195,-217.516 1217.2969,-190.0493 1249.7848,-171.4984 1289.2302,-156.4982 1320.0349,-146.265"/>
<polygon fill="#757575" stroke="#757575" points="1321.2893,-149.5375 1329.713,-143.1116 1319.1207,-142.8819 1321.2893,-149.5375"/>
</g>
<!-- components/MetricsView.tsx&#45;&gt;components/GraphGeneralStatisticsDisplay.tsx -->
<g id="edge19" class="edge">
<title>components/MetricsView.tsx&#45;&gt;components/GraphGeneralStatisticsDisplay.tsx</title>
<path fill="none" stroke="#757575" d="M1110.3553,-307.3195C1136.5281,-319.5714 1178.9143,-338.1091 1217.2969,-349.0493 1233.8388,-353.7643 1251.6404,-357.7403 1269.0578,-361.0538"/>
<polygon fill="#757575" stroke="#757575" points="1268.788,-364.5627 1279.256,-362.9287 1270.0537,-357.6781 1268.788,-364.5627"/>
</g>
<!-- components/MetricsView.tsx&#45;&gt;graph/index.ts -->
<g id="edge20" class="edge">
<title>components/MetricsView.tsx&#45;&gt;graph/index.ts</title>
<path fill="none" stroke="#757575" d="M1148.0732,-307.1253C1169.9044,-310.7598 1194.5959,-314.2573 1217.2969,-316.0493 1353.554,-326.8054 1388.344,-323.3645 1524.8291,-316.0493 1569.5401,-313.6529 1619.7608,-308.1925 1658.0847,-303.4405"/>
<polygon fill="#757575" stroke="#757575" points="1658.5761,-306.9063 1668.0614,-302.1862 1657.7028,-299.961 1658.5761,-306.9063"/>
</g>
<!-- metrics/DegreeDistribution.ts -->
<g id="node19" class="node">
<title>metrics/DegreeDistribution.ts</title>
<path fill="none" stroke="#c6c5fe" d="M1460.7209,-307.1482C1460.7209,-307.1482 1281.4051,-307.1482 1281.4051,-307.1482 1277.3721,-307.1482 1273.3392,-303.1152 1273.3392,-299.0823 1273.3392,-299.0823 1273.3392,-291.0164 1273.3392,-291.0164 1273.3392,-286.9834 1277.3721,-282.9505 1281.4051,-282.9505 1281.4051,-282.9505 1460.7209,-282.9505 1460.7209,-282.9505 1464.7539,-282.9505 1468.7868,-286.9834 1468.7868,-291.0164 1468.7868,-291.0164 1468.7868,-299.0823 1468.7868,-299.0823 1468.7868,-303.1152 1464.7539,-307.1482 1460.7209,-307.1482"/>
<text text-anchor="middle" x="1371.063" y="-291.8986" font-family="Arial" font-size="14.00" fill="#c6c5fe">metrics/DegreeDistribution.ts</text>
</g>
<!-- components/MetricsView.tsx&#45;&gt;metrics/DegreeDistribution.ts -->
<g id="edge21" class="edge">
<title>components/MetricsView.tsx&#45;&gt;metrics/DegreeDistribution.ts</title>
<path fill="none" stroke="#757575" d="M1181.5242,-295.0493C1207.6903,-295.0493 1236.1923,-295.0493 1262.9579,-295.0493"/>
<polygon fill="#757575" stroke="#757575" points="1263.1226,-298.5494 1273.1225,-295.0493 1263.1225,-291.5494 1263.1226,-298.5494"/>
</g>
<!-- metrics/DistanceToRootDistribution.ts -->
<g id="node20" class="node">
<title>metrics/DistanceToRootDistribution.ts</title>
<path fill="none" stroke="#c6c5fe" d="M1487.1312,-265.1482C1487.1312,-265.1482 1254.9948,-265.1482 1254.9948,-265.1482 1250.9619,-265.1482 1246.9289,-261.1152 1246.9289,-257.0823 1246.9289,-257.0823 1246.9289,-249.0164 1246.9289,-249.0164 1246.9289,-244.9834 1250.9619,-240.9505 1254.9948,-240.9505 1254.9948,-240.9505 1487.1312,-240.9505 1487.1312,-240.9505 1491.1641,-240.9505 1495.197,-244.9834 1495.197,-249.0164 1495.197,-249.0164 1495.197,-257.0823 1495.197,-257.0823 1495.197,-261.1152 1491.1641,-265.1482 1487.1312,-265.1482"/>
<text text-anchor="middle" x="1371.063" y="-249.8986" font-family="Arial" font-size="14.00" fill="#c6c5fe">metrics/DistanceToRootDistribution.ts</text>
</g>
<!-- components/MetricsView.tsx&#45;&gt;metrics/DistanceToRootDistribution.ts -->
<g id="edge22" class="edge">
<title>components/MetricsView.tsx&#45;&gt;metrics/DistanceToRootDistribution.ts</title>
<path fill="none" stroke="#757575" d="M1159.1752,-282.9914C1178.1116,-279.9885 1198.4476,-276.8334 1217.2969,-274.0493 1234.342,-271.5317 1252.4664,-268.9615 1270.0674,-266.522"/>
<polygon fill="#757575" stroke="#757575" points="1270.9302,-269.9362 1280.3579,-265.1022 1269.9734,-263.0019 1270.9302,-269.9362"/>
</g>
<!-- metrics/DegreeDistribution.ts&#45;&gt;graph/index.ts -->
<g id="edge43" class="edge">
<title>metrics/DegreeDistribution.ts&#45;&gt;graph/index.ts</title>
<path fill="none" stroke="#757575" d="M1469.2387,-295.0493C1529.7416,-295.0493 1605.4942,-295.0493 1657.8538,-295.0493"/>
<polygon fill="#757575" stroke="#757575" points="1658.0024,-298.5494 1668.0023,-295.0493 1658.0023,-291.5494 1658.0024,-298.5494"/>
</g>
<!-- metrics/DistanceToRootDistribution.ts&#45;&gt;graph/index.ts -->
<g id="edge44" class="edge">
<title>metrics/DistanceToRootDistribution.ts&#45;&gt;graph/index.ts</title>
<path fill="none" stroke="#757575" d="M1471.5718,-265.1411C1531.8131,-272.3885 1606.4977,-281.3735 1658.1996,-287.5935"/>
<polygon fill="#757575" stroke="#757575" points="1657.876,-291.0797 1668.2225,-288.7993 1658.7121,-284.1298 1657.876,-291.0797"/>
</g>
<!-- hooks/useSimulation.tsx&#45;&gt;simulation/index.ts -->
<g id="edge38" class="edge">
<title>hooks/useSimulation.tsx&#45;&gt;simulation/index.ts</title>
<path fill="none" stroke="#757575" d="M687.9207,-204.9654C698.0083,-202.3044 708.4121,-199.2993 718.041,-196.0493 753.2258,-184.1737 792.0613,-167.1154 819.0925,-154.5713"/>
<polygon fill="#757575" stroke="#757575" points="820.9163,-157.5821 828.4887,-150.172 817.948,-151.2426 820.9163,-157.5821"/>
</g>
<!-- hooks/useTimer.tsx&#45;&gt;Timer.tsx -->
<g id="edge39" class="edge">
<title>hooks/useTimer.tsx&#45;&gt;Timer.tsx</title>
<path fill="none" stroke="#757575" d="M702.6283,-373.0493C736.5375,-373.0493 776.6616,-373.0493 807.002,-373.0493"/>
<polygon fill="#757575" stroke="#757575" points="807.2996,-376.5494 817.2995,-373.0493 807.2995,-369.5494 807.2996,-376.5494"/>
</g>
<!-- graph/AdjacencyListGraph.ts&#45;&gt;graph/AdjacencyListVertex.ts -->
<g id="edge32" class="edge">
<title>graph/AdjacencyListGraph.ts&#45;&gt;graph/AdjacencyListVertex.ts</title>
<path fill="none" stroke="#757575" d="M2127.0309,-282.9766C2155.6186,-278.7541 2187.9045,-273.9855 2217.277,-269.6471"/>
<polygon fill="#757575" stroke="#757575" points="2218.1528,-273.0558 2227.534,-268.1322 2217.1299,-266.131 2218.1528,-273.0558"/>
</g>
<!-- graph/AdjacencyListGraph.ts&#45;&gt;graph/types.ts -->
<g id="edge33" class="edge">
<title>graph/AdjacencyListGraph.ts&#45;&gt;graph/types.ts</title>
<path fill="none" stroke="#757575" d="M2143.2763,-295.2669C2231.3657,-295.4625 2358.0972,-295.744 2433.1195,-295.9106"/>
<polygon fill="#757575" stroke="#757575" points="2433.3451,-299.411 2443.3529,-295.9333 2433.3607,-292.411 2433.3451,-299.411"/>
</g>
<!-- graph/AdjacencyListVertex.ts&#45;&gt;graph/types.ts -->
<g id="edge34" class="edge">
<title>graph/AdjacencyListVertex.ts&#45;&gt;graph/types.ts</title>
<path fill="none" stroke="#757575" d="M2365.4713,-268.1049C2386.9264,-272.7129 2411.5096,-277.9928 2433.489,-282.7134"/>
<polygon fill="#757575" stroke="#757575" points="2432.8718,-286.1606 2443.3838,-284.8386 2434.3418,-279.3167 2432.8718,-286.1606"/>
</g>
<!-- index.scss -->
<g id="node29" class="node">
<title>index.scss</title>
<path fill="none" stroke="#cfffac" d="M211.4652,-87.1482C211.4652,-87.1482 145.8786,-87.1482 145.8786,-87.1482 141.8456,-87.1482 137.8127,-83.1152 137.8127,-79.0823 137.8127,-79.0823 137.8127,-71.0164 137.8127,-71.0164 137.8127,-66.9834 141.8456,-62.9505 145.8786,-62.9505 145.8786,-62.9505 211.4652,-62.9505 211.4652,-62.9505 215.4981,-62.9505 219.5311,-66.9834 219.5311,-71.0164 219.5311,-71.0164 219.5311,-79.0823 219.5311,-79.0823 219.5311,-83.1152 215.4981,-87.1482 211.4652,-87.1482"/>
<text text-anchor="middle" x="178.6719" y="-71.8986" font-family="Arial" font-size="14.00" fill="#cfffac">index.scss</text>
</g>
<!-- index.tsx -->
<g id="node30" class="node">
<title>index.tsx</title>
<path fill="none" stroke="#c6c5fe" d="M63.3066,-87.1482C63.3066,-87.1482 7.9414,-87.1482 7.9414,-87.1482 3.9085,-87.1482 -.1245,-83.1152 -.1245,-79.0823 -.1245,-79.0823 -.1245,-71.0164 -.1245,-71.0164 -.1245,-66.9834 3.9085,-62.9505 7.9414,-62.9505 7.9414,-62.9505 63.3066,-62.9505 63.3066,-62.9505 67.3396,-62.9505 71.3725,-66.9834 71.3725,-71.0164 71.3725,-71.0164 71.3725,-79.0823 71.3725,-79.0823 71.3725,-83.1152 67.3396,-87.1482 63.3066,-87.1482"/>
<text text-anchor="middle" x="35.624" y="-71.8986" font-family="Arial" font-size="14.00" fill="#c6c5fe">index.tsx</text>
</g>
<!-- index.tsx&#45;&gt;components/App.tsx -->
<g id="edge40" class="edge">
<title>index.tsx&#45;&gt;components/App.tsx</title>
<path fill="none" stroke="#757575" d="M71.352,-85.5393C88.3976,-90.5441 109.0978,-96.6218 127.7533,-102.0992"/>
<polygon fill="#757575" stroke="#757575" points="126.9995,-105.5256 137.5805,-104.9846 128.9716,-98.8091 126.9995,-105.5256"/>
</g>
<!-- index.tsx&#45;&gt;index.scss -->
<g id="edge41" class="edge">
<title>index.tsx&#45;&gt;index.scss</title>
<path fill="none" stroke="#757575" d="M71.352,-75.0493C88.3889,-75.0493 109.0766,-75.0493 127.7246,-75.0493"/>
<polygon fill="#757575" stroke="#757575" points="127.8387,-78.5494 137.8387,-75.0493 127.8386,-71.5494 127.8387,-78.5494"/>
</g>
<!-- serviceWorker.ts -->
<g id="node31" class="node">
<title>serviceWorker.ts</title>
<path fill="none" stroke="#cfffac" d="M230.3152,-45.1482C230.3152,-45.1482 127.0286,-45.1482 127.0286,-45.1482 122.9957,-45.1482 118.9627,-41.1152 118.9627,-37.0823 118.9627,-37.0823 118.9627,-29.0164 118.9627,-29.0164 118.9627,-24.9834 122.9957,-20.9505 127.0286,-20.9505 127.0286,-20.9505 230.3152,-20.9505 230.3152,-20.9505 234.3481,-20.9505 238.381,-24.9834 238.381,-29.0164 238.381,-29.0164 238.381,-37.0823 238.381,-37.0823 238.381,-41.1152 234.3481,-45.1482 230.3152,-45.1482"/>
<text text-anchor="middle" x="178.6719" y="-29.8986" font-family="Arial" font-size="14.00" fill="#cfffac">serviceWorker.ts</text>
</g>
<!-- index.tsx&#45;&gt;serviceWorker.ts -->
<g id="edge42" class="edge">
<title>index.tsx&#45;&gt;serviceWorker.ts</title>
<path fill="none" stroke="#757575" d="M71.352,-64.5593C88.3976,-59.5546 109.0978,-53.4768 127.7533,-47.9994"/>
<polygon fill="#757575" stroke="#757575" points="128.9716,-51.2895 137.5805,-45.1141 126.9995,-44.573 128.9716,-51.2895"/>
</g>
<!-- simulation/LuaSimulation.ts&#45;&gt;graph/index.ts -->
<g id="edge45" class="edge">
<title>simulation/LuaSimulation.ts&#45;&gt;graph/index.ts</title>
<path fill="none" stroke="#757575" d="M1178.5697,-156.6141C1299.3364,-160.7026 1497.4356,-170.3354 1524.8291,-190.0493 1557.7969,-213.7748 1528.4566,-249.5177 1560.8291,-274.0493 1588.1206,-294.7306 1625.8632,-300.4096 1657.7657,-300.7172"/>
<polygon fill="#757575" stroke="#757575" points="1657.9245,-304.2162 1667.8977,-300.6405 1657.8715,-297.2164 1657.9245,-304.2162"/>
</g>
<!-- simulation/LuaSimulation.ts&#45;&gt;simulation/TickResult.tsx -->
<g id="edge46" class="edge">
<title>simulation/LuaSimulation.ts&#45;&gt;simulation/TickResult.tsx</title>
<path fill="none" stroke="#757575" d="M1126.0329,-141.9634C1143.1923,-136.7203 1163.3007,-130.3468 1181.2969,-124.0493 1197.5007,-118.379 1200.6774,-114.3516 1217.2969,-110.0493 1236.0658,-105.1906 1256.4321,-101.4041 1276.015,-98.471"/>
<polygon fill="#757575" stroke="#757575" points="1276.77,-101.8986 1286.1715,-97.0137 1275.7758,-94.9695 1276.77,-101.8986"/>
</g>
<!-- simulation/stdlib.ts -->
<g id="node34" class="node">
<title>simulation/stdlib.ts</title>
<path fill="none" stroke="#c6c5fe" d="M1428.3766,-223.1482C1428.3766,-223.1482 1313.7494,-223.1482 1313.7494,-223.1482 1309.7165,-223.1482 1305.6835,-219.1152 1305.6835,-215.0823 1305.6835,-215.0823 1305.6835,-207.0164 1305.6835,-207.0164 1305.6835,-202.9834 1309.7165,-198.9505 1313.7494,-198.9505 1313.7494,-198.9505 1428.3766,-198.9505 1428.3766,-198.9505 1432.4095,-198.9505 1436.4424,-202.9834 1436.4424,-207.0164 1436.4424,-207.0164 1436.4424,-215.0823 1436.4424,-215.0823 1436.4424,-219.1152 1432.4095,-223.1482 1428.3766,-223.1482"/>
<text text-anchor="middle" x="1371.063" y="-207.8986" font-family="Arial" font-size="14.00" fill="#c6c5fe">simulation/stdlib.ts</text>
</g>
<!-- simulation/LuaSimulation.ts&#45;&gt;simulation/stdlib.ts -->
<g id="edge47" class="edge">
<title>simulation/LuaSimulation.ts&#45;&gt;simulation/stdlib.ts</title>
<path fill="none" stroke="#757575" d="M1133.2961,-166.1172C1158.2789,-172.1792 1189.3382,-179.4129 1217.2969,-185.0493 1242.7229,-190.1751 1270.6526,-195.1057 1295.6516,-199.2692"/>
<polygon fill="#757575" stroke="#757575" points="1295.3668,-202.7695 1305.8033,-200.945 1296.5069,-195.863 1295.3668,-202.7695"/>
</g>
<!-- simulation/TickResult.tsx&#45;&gt;simulation/SimulationError.tsx -->
<g id="edge48" class="edge">
<title>simulation/TickResult.tsx&#45;&gt;simulation/SimulationError.tsx</title>
<path fill="none" stroke="#757575" d="M1456.0186,-78.8287C1502.2801,-73.2631 1560.0612,-66.3117 1609.7765,-60.3307"/>
<polygon fill="#757575" stroke="#757575" points="1610.4202,-63.7786 1619.9305,-59.1091 1609.584,-56.8287 1610.4202,-63.7786"/>
</g>
<!-- simulation/stdlib.ts&#45;&gt;graph/index.ts -->
<g id="edge52" class="edge">
<title>simulation/stdlib.ts&#45;&gt;graph/index.ts</title>
<path fill="none" stroke="#757575" d="M1436.3735,-209.7493C1465.0024,-211.6819 1498.095,-217.4808 1524.8291,-232.0493 1546.4172,-243.8136 1539.2134,-262.3358 1560.8291,-274.0493 1590.2539,-289.9946 1627.0844,-295.6082 1657.922,-297.0712"/>
<polygon fill="#757575" stroke="#757575" points="1658.0181,-300.5764 1668.1309,-297.4172 1658.2552,-293.5804 1658.0181,-300.5764"/>
</g>
</g>
</svg>
